{
    "asset" : {
        "generator" : "Khronos glTF Blender I/O v1.3.48",
        "version" : "2.0"
    },
    "scene" : 0,
    "scenes" : [
        {
            "name" : "Scene",
            "nodes" : [
                21
            ]
        }
    ],
    "nodes" : [
        {
            "mesh" : 0,
            "name" : "Mesh_0"
        },
        {
            "children" : [
                0
            ],
            "name" : "Alpha.0000_0",
            "rotation" : [
                0.7071068286895752,
                0,
                0,
                0.7071067094802856
            ]
        },
        {
            "mesh" : 1,
            "name" : "Mesh_1"
        },
        {
            "children" : [
                2
            ],
            "name" : "Alpha.0001_1",
            "rotation" : [
                0.7071068286895752,
                0,
                0,
                0.7071067094802856
            ]
        },
        {
            "mesh" : 2,
            "name" : "Mesh_2"
        },
        {
            "children" : [
                4
            ],
            "name" : "Alpha.0002_2",
            "rotation" : [
                0.7071068286895752,
                0,
                0,
                0.7071067094802856
            ]
        },
        {
            "mesh" : 3,
            "name" : "Mesh_3"
        },
        {
            "children" : [
                6
            ],
            "name" : "Alpha.0003_3",
            "rotation" : [
                0.7071068286895752,
                0,
                0,
                0.7071067094802856
            ]
        },
        {
            "mesh" : 4,
            "name" : "Mesh_4"
        },
        {
            "children" : [
                8
            ],
            "name" : "Alpha.0004_4",
            "rotation" : [
                0.7071068286895752,
                0,
                0,
                0.7071067094802856
            ]
        },
        {
            "mesh" : 5,
            "name" : "Mesh_5"
        },
        {
            "children" : [
                10
            ],
            "name" : "Alpha.0005_5",
            "rotation" : [
                0.7071068286895752,
                0,
                0,
                0.7071067094802856
            ]
        },
        {
            "mesh" : 6,
            "name" : "Mesh_6"
        },
        {
            "children" : [
                12
            ],
            "name" : "Alpha.0006_6",
            "rotation" : [
                0.7071068286895752,
                0,
                0,
                0.7071067094802856
            ]
        },
        {
            "mesh" : 7,
            "name" : "Mesh_7"
        },
        {
            "children" : [
                14
            ],
            "name" : "Alpha_7",
            "rotation" : [
                0.7071068286895752,
                0,
                0,
                0.7071067094802856
            ],
            "scale" : [
                0.7773211598396301,
                0.7773211598396301,
                0.7773211598396301
            ],
            "translation" : [
                -1.4677926301956177,
                -0.00443260045722127,
                0.13435755670070648
            ]
        },
        {
            "mesh" : 8,
            "name" : "Mesh_8"
        },
        {
            "children" : [
                16
            ],
            "name" : "Gee_8",
            "rotation" : [
                0.7071068286895752,
                0,
                0,
                0.7071067094802856
            ],
            "scale" : [
                0.7797582149505615,
                0.7797582149505615,
                0.7797582149505615
            ],
            "translation" : [
                1.423296570777893,
                -0.05100543424487114,
                -0.09528983384370804
            ]
        },
        {
            "children" : [
                1,
                3,
                5,
                7,
                9,
                11,
                13,
                15,
                17
            ],
            "name" : "GLTF_SceneRootNode",
            "rotation" : [
                0.7071068286895752,
                0,
                0,
                0.7071068286895752
            ]
        },
        {
            "children" : [
                18
            ],
            "name" : "root"
        },
        {
            "children" : [
                19
            ],
            "name" : "RootNode (model correction matrix)"
        },
        {
            "children" : [
                20
            ],
            "name" : "RootNode (gltf orientation matrix)",
            "rotation" : [
                -0.7071068286895752,
                0,
                0,
                0.7071068286895752
            ],
            "scale" : [
                1.1483588218688965,
                1.1483588218688965,
                1.1656038761138916
            ],
            "translation" : [
                0,
                1.226895809173584,
                0
            ]
        }
    ],
    "materials" : [
        {
            "doubleSided" : true,
            "emissiveFactor" : [
                0,
                0,
                0
            ],
            "name" : "Material.009",
            "pbrMetallicRoughness" : {
                "baseColorFactor" : [
                    0.11029800027608871,
                    0,
                    0.800000011920929,
                    1
                ],
                "metallicFactor" : 0,
                "roughnessFactor" : 0.5
            }
        },
        {
            "doubleSided" : true,
            "emissiveFactor" : [
                0,
                0,
                0
            ],
            "name" : "Material.010",
            "pbrMetallicRoughness" : {
                "baseColorFactor" : [
                    0.26500099897384644,
                    0,
                    0.800000011920929,
                    1
                ],
                "metallicFactor" : 0,
                "roughnessFactor" : 0.5
            }
        },
        {
            "doubleSided" : true,
            "emissiveFactor" : [
                0,
                0,
                0
            ],
            "name" : "Material.011",
            "pbrMetallicRoughness" : {
                "baseColorFactor" : [
                    0,
                    0.800000011920929,
                    0.4399240016937256,
                    1
                ],
                "metallicFactor" : 0,
                "roughnessFactor" : 0.5
            }
        },
        {
            "doubleSided" : true,
            "emissiveFactor" : [
                0,
                0,
                0
            ],
            "name" : "Material.012",
            "pbrMetallicRoughness" : {
                "baseColorFactor" : [
                    0.4745909869670868,
                    0.800000011920929,
                    0,
                    1
                ],
                "metallicFactor" : 0,
                "roughnessFactor" : 0.5
            }
        },
        {
            "doubleSided" : true,
            "emissiveFactor" : [
                0,
                0,
                0
            ],
            "name" : "Material.013",
            "pbrMetallicRoughness" : {
                "baseColorFactor" : [
                    0.800000011920929,
                    0.3778479993343353,
                    0,
                    1
                ],
                "metallicFactor" : 0,
                "roughnessFactor" : 0.5
            }
        },
        {
            "doubleSided" : true,
            "emissiveFactor" : [
                0,
                0,
                0
            ],
            "name" : "Material.014",
            "pbrMetallicRoughness" : {
                "baseColorFactor" : [
                    0.800000011920929,
                    0.1262349933385849,
                    0,
                    1
                ],
                "metallicFactor" : 0,
                "roughnessFactor" : 0.5
            }
        },
        {
            "doubleSided" : true,
            "emissiveFactor" : [
                0,
                0,
                0
            ],
            "name" : "Material.015",
            "pbrMetallicRoughness" : {
                "baseColorFactor" : [
                    0.800000011920929,
                    0,
                    0.010976999998092651,
                    1
                ],
                "metallicFactor" : 0,
                "roughnessFactor" : 0.5
            }
        },
        {
            "doubleSided" : true,
            "emissiveFactor" : [
                0,
                0,
                0
            ],
            "name" : "Cloud",
            "pbrMetallicRoughness" : {
                "baseColorFactor" : [
                    0.7946771383285522,
                    0.7253742814064026,
                    0.681321918964386,
                    1
                ],
                "metallicFactor" : 0.3117993474006653,
                "roughnessFactor" : 0.47539424896240234
            }
        }
    ],
    "meshes" : [
        {
            "name" : "Mesh_0",
            "primitives" : [
                {
                    "attributes" : {
                        "POSITION" : 0,
                        "NORMAL" : 1
                    },
                    "indices" : 2,
                    "material" : 0
                }
            ]
        },
        {
            "name" : "Mesh_1",
            "primitives" : [
                {
                    "attributes" : {
                        "POSITION" : 3,
                        "NORMAL" : 4
                    },
                    "indices" : 2,
                    "material" : 1
                }
            ]
        },
        {
            "name" : "Mesh_2",
            "primitives" : [
                {
                    "attributes" : {
                        "POSITION" : 5,
                        "NORMAL" : 6
                    },
                    "indices" : 2,
                    "material" : 2
                }
            ]
        },
        {
            "name" : "Mesh_3",
            "primitives" : [
                {
                    "attributes" : {
                        "POSITION" : 7,
                        "NORMAL" : 8
                    },
                    "indices" : 2,
                    "material" : 3
                }
            ]
        },
        {
            "name" : "Mesh_4",
            "primitives" : [
                {
                    "attributes" : {
                        "POSITION" : 9,
                        "NORMAL" : 10
                    },
                    "indices" : 2,
                    "material" : 4
                }
            ]
        },
        {
            "name" : "Mesh_5",
            "primitives" : [
                {
                    "attributes" : {
                        "POSITION" : 11,
                        "NORMAL" : 12
                    },
                    "indices" : 2,
                    "material" : 5
                }
            ]
        },
        {
            "name" : "Mesh_6",
            "primitives" : [
                {
                    "attributes" : {
                        "POSITION" : 13,
                        "NORMAL" : 14
                    },
                    "indices" : 2,
                    "material" : 6
                }
            ]
        },
        {
            "name" : "Mesh_7",
            "primitives" : [
                {
                    "attributes" : {
                        "POSITION" : 15,
                        "NORMAL" : 16
                    },
                    "indices" : 17,
                    "material" : 7
                }
            ]
        },
        {
            "name" : "Mesh_8",
            "primitives" : [
                {
                    "attributes" : {
                        "POSITION" : 18,
                        "NORMAL" : 19
                    },
                    "indices" : 20,
                    "material" : 7
                }
            ]
        }
    ],
    "accessors" : [
        {
            "bufferView" : 0,
            "componentType" : 5126,
            "count" : 256,
            "max" : [
                1.01795494556427,
                0.0723654180765152,
                0.0022899999748915434
            ],
            "min" : [
                -1.01795494556427,
                -0.07847917079925537,
                -1.0166929960250854
            ],
            "type" : "VEC3"
        },
        {
            "bufferView" : 1,
            "componentType" : 5126,
            "count" : 256,
            "type" : "VEC3"
        },
        {
            "bufferView" : 2,
            "componentType" : 5123,
            "count" : 1488,
            "type" : "SCALAR"
        },
        {
            "bufferView" : 3,
            "componentType" : 5126,
            "count" : 256,
            "max" : [
                1.1116210222244263,
                0.057999998331069946,
                0.0022899999748915434
            ],
            "min" : [
                -1.1116210222244263,
                -0.057999998331069946,
                -1.1102399826049805
            ],
            "type" : "VEC3"
        },
        {
            "bufferView" : 4,
            "componentType" : 5126,
            "count" : 256,
            "type" : "VEC3"
        },
        {
            "bufferView" : 5,
            "componentType" : 5126,
            "count" : 256,
            "max" : [
                1.205288052558899,
                0.057999998331069946,
                0.0022899999748915434
            ],
            "min" : [
                -1.205288052558899,
                -0.057999998331069946,
                -1.203786015510559
            ],
            "type" : "VEC3"
        },
        {
            "bufferView" : 6,
            "componentType" : 5126,
            "count" : 256,
            "type" : "VEC3"
        },
        {
            "bufferView" : 7,
            "componentType" : 5126,
            "count" : 256,
            "max" : [
                1.298954963684082,
                0.057999998331069946,
                0.0022899999748915434
            ],
            "min" : [
                -1.298954963684082,
                -0.057999998331069946,
                -1.2973320484161377
            ],
            "type" : "VEC3"
        },
        {
            "bufferView" : 8,
            "componentType" : 5126,
            "count" : 256,
            "type" : "VEC3"
        },
        {
            "bufferView" : 9,
            "componentType" : 5126,
            "count" : 256,
            "max" : [
                1.3926210403442383,
                0.057999998331069946,
                0.0022899999748915434
            ],
            "min" : [
                -1.3926210403442383,
                -0.057999998331069946,
                -1.3908790349960327
            ],
            "type" : "VEC3"
        },
        {
            "bufferView" : 10,
            "componentType" : 5126,
            "count" : 256,
            "type" : "VEC3"
        },
        {
            "bufferView" : 11,
            "componentType" : 5126,
            "count" : 256,
            "max" : [
                1.4862879514694214,
                0.07199941575527191,
                0.0022899999748915434
            ],
            "min" : [
                -1.4862879514694214,
                -0.06700769066810608,
                -1.4844249486923218
            ],
            "type" : "VEC3"
        },
        {
            "bufferView" : 12,
            "componentType" : 5126,
            "count" : 256,
            "type" : "VEC3"
        },
        {
            "bufferView" : 13,
            "componentType" : 5126,
            "count" : 256,
            "max" : [
                1.579954981803894,
                0.0854991227388382,
                0.0022899999748915434
            ],
            "min" : [
                -1.579954981803894,
                -0.07736861705780029,
                -1.5901182889938354
            ],
            "type" : "VEC3"
        },
        {
            "bufferView" : 14,
            "componentType" : 5126,
            "count" : 256,
            "type" : "VEC3"
        },
        {
            "bufferView" : 15,
            "componentType" : 5126,
            "count" : 3172,
            "max" : [
                0.9242278337478638,
                0.8670135140419006,
                0.7893076539039612
            ],
            "min" : [
                -0.89451664686203,
                -0.8648034930229187,
                -0.9423550963401794
            ],
            "type" : "VEC3"
        },
        {
            "bufferView" : 16,
            "componentType" : 5126,
            "count" : 3172,
            "type" : "VEC3"
        },
        {
            "bufferView" : 17,
            "componentType" : 5123,
            "count" : 19020,
            "type" : "SCALAR"
        },
        {
            "bufferView" : 18,
            "componentType" : 5126,
            "count" : 4714,
            "max" : [
                0.9254791140556335,
                0.9446256756782532,
                0.8473804593086243
            ],
            "min" : [
                -0.9722352623939514,
                -0.9035526514053345,
                -0.9309737086296082
            ],
            "type" : "VEC3"
        },
        {
            "bufferView" : 19,
            "componentType" : 5126,
            "count" : 4714,
            "type" : "VEC3"
        },
        {
            "bufferView" : 20,
            "componentType" : 5123,
            "count" : 28272,
            "type" : "SCALAR"
        }
    ],
    "bufferViews" : [
        {
            "buffer" : 0,
            "byteLength" : 3072,
            "byteOffset" : 0
        },
        {
            "buffer" : 0,
            "byteLength" : 3072,
            "byteOffset" : 3072
        },
        {
            "buffer" : 0,
            "byteLength" : 2976,
            "byteOffset" : 6144
        },
        {
            "buffer" : 0,
            "byteLength" : 3072,
            "byteOffset" : 9120
        },
        {
            "buffer" : 0,
            "byteLength" : 3072,
            "byteOffset" : 12192
        },
        {
            "buffer" : 0,
            "byteLength" : 3072,
            "byteOffset" : 15264
        },
        {
            "buffer" : 0,
            "byteLength" : 3072,
            "byteOffset" : 18336
        },
        {
            "buffer" : 0,
            "byteLength" : 3072,
            "byteOffset" : 21408
        },
        {
            "buffer" : 0,
            "byteLength" : 3072,
            "byteOffset" : 24480
        },
        {
            "buffer" : 0,
            "byteLength" : 3072,
            "byteOffset" : 27552
        },
        {
            "buffer" : 0,
            "byteLength" : 3072,
            "byteOffset" : 30624
        },
        {
            "buffer" : 0,
            "byteLength" : 3072,
            "byteOffset" : 33696
        },
        {
            "buffer" : 0,
            "byteLength" : 3072,
            "byteOffset" : 36768
        },
        {
            "buffer" : 0,
            "byteLength" : 3072,
            "byteOffset" : 39840
        },
        {
            "buffer" : 0,
            "byteLength" : 3072,
            "byteOffset" : 42912
        },
        {
            "buffer" : 0,
            "byteLength" : 38064,
            "byteOffset" : 45984
        },
        {
            "buffer" : 0,
            "byteLength" : 38064,
            "byteOffset" : 84048
        },
        {
            "buffer" : 0,
            "byteLength" : 38040,
            "byteOffset" : 122112
        },
        {
            "buffer" : 0,
            "byteLength" : 56568,
            "byteOffset" : 160152
        },
        {
            "buffer" : 0,
            "byteLength" : 56568,
            "byteOffset" : 216720
        },
        {
            "buffer" : 0,
            "byteLength" : 56544,
            "byteOffset" : 273288
        }
    ],
    "buffers" : [
        {
            "byteLength" : 329832,
            "uri" : "data:application/octet-stream;base64,"
        }
    ]
}
