{
    "asset" : {
        "generator" : "Khronos glTF Blender I/O v1.3.48",
        "version" : "2.0"
    },
    "scene" : 0,
    "scenes" : [
        {
            "name" : "Scene",
            "nodes" : [
                0
            ]
        }
    ],
    "nodes" : [
        {
            "mesh" : 0,
            "name" : "Cube",
            "rotation" : [
                0.7071068286895752,
                0,
                0,
                0.7071067094802856
            ],
            "translation" : [
                0,
                5.014623165130615,
                0
            ]
        }
    ],
    "materials" : [
        {
            "doubleSided" : true,
            "emissiveFactor" : [
                0,
                0,
                0
            ],
            "name" : "Material",
            "pbrMetallicRoughness" : {
                "baseColorTexture" : {
                    "index" : 0,
                    "texCoord" : 0
                },
                "metallicFactor" : 0,
                "roughnessFactor" : 0.6732679605484009
            }
        },
        {
            "doubleSided" : true,
            "emissiveFactor" : [
                0,
                0,
                0
            ],
            "name" : "Material.006",
            "pbrMetallicRoughness" : {
                "baseColorFactor" : [
                    0,
                    0.6399999856948853,
                    0.5659199953079224,
                    1
                ],
                "metallicFactor" : 0,
                "roughnessFactor" : 0.6732679605484009
            }
        },
        {
            "doubleSided" : true,
            "emissiveFactor" : [
                0,
                0,
                0
            ],
            "name" : "Material.003",
            "pbrMetallicRoughness" : {
                "baseColorFactor" : [
                    0.0037930000107735395,
                    0.800000011920929,
                    0,
                    1
                ],
                "metallicFactor" : 0,
                "roughnessFactor" : 0.6732679605484009
            }
        },
        {
            "doubleSided" : true,
            "emissiveFactor" : [
                0,
                0,
                0
            ],
            "name" : "Material.005",
            "pbrMetallicRoughness" : {
                "baseColorFactor" : [
                    0.800000011920929,
                    0.11292599886655807,
                    0.011872000060975552,
                    1
                ],
                "metallicFactor" : 0,
                "roughnessFactor" : 0.6732679605484009
            }
        },
        {
            "doubleSided" : true,
            "emissiveFactor" : [
                0,
                0,
                0
            ],
            "name" : "Material.002",
            "pbrMetallicRoughness" : {
                "baseColorFactor" : [
                    0.0007510000141337514,
                    0,
                    0.800000011920929,
                    1
                ],
                "metallicFactor" : 0,
                "roughnessFactor" : 0.6732679605484009
            }
        },
        {
            "doubleSided" : true,
            "emissiveFactor" : [
                0,
                0,
                0
            ],
            "name" : "Material.004",
            "pbrMetallicRoughness" : {
                "baseColorFactor" : [
                    1,
                    0,
                    0.0026080000679939985,
                    1
                ],
                "metallicFactor" : 0,
                "roughnessFactor" : 0.6732679605484009
            }
        },
        {
            "doubleSided" : true,
            "emissiveFactor" : [
                0,
                0,
                0
            ],
            "name" : "Material.008",
            "pbrMetallicRoughness" : {
                "baseColorFactor" : [
                    0.800000011920929,
                    0.7329810261726379,
                    0.04799399897456169,
                    1
                ],
                "metallicFactor" : 0,
                "roughnessFactor" : 0.6732679605484009
            }
        }
    ],
    "meshes" : [
        {
            "name" : "Cube",
            "primitives" : [
                {
                    "attributes" : {
                        "POSITION" : 0,
                        "NORMAL" : 1
                    },
                    "indices" : 2,
                    "material" : 0
                },
                {
                    "attributes" : {
                        "POSITION" : 3,
                        "NORMAL" : 4
                    },
                    "indices" : 5,
                    "material" : 1
                },
                {
                    "attributes" : {
                        "POSITION" : 6,
                        "NORMAL" : 7
                    },
                    "indices" : 8,
                    "material" : 2
                },
                {
                    "attributes" : {
                        "POSITION" : 9,
                        "NORMAL" : 10
                    },
                    "indices" : 11,
                    "material" : 3
                },
                {
                    "attributes" : {
                        "POSITION" : 12,
                        "NORMAL" : 13
                    },
                    "indices" : 14,
                    "material" : 4
                },
                {
                    "attributes" : {
                        "POSITION" : 15,
                        "NORMAL" : 16
                    },
                    "indices" : 17,
                    "material" : 5
                },
                {
                    "attributes" : {
                        "POSITION" : 18,
                        "NORMAL" : 19
                    },
                    "indices" : 20,
                    "material" : 6
                }
            ]
        }
    ],
    "textures" : [
        {
            "source" : 0
        }
    ],
    "images" : [
        {
            "bufferView" : 3,
            "mimeType" : "image/jpeg",
            "name" : "3201"
        }
    ],
    "accessors" : [
        {
            "bufferView" : 0,
            "componentType" : 5126,
            "count" : 760,
            "max" : [
                3.1540029048919678,
                3.1848649978637695,
                2.3949360847473145
            ],
            "min" : [
                -2.188241958618164,
                -2.1573801040649414,
                -2.9473071098327637
            ],
            "type" : "VEC3"
        },
        {
            "bufferView" : 1,
            "componentType" : 5126,
            "count" : 760,
            "type" : "VEC3"
        },
        {
            "bufferView" : 2,
            "componentType" : 5123,
            "count" : 1188,
            "type" : "SCALAR"
        },
        {
            "bufferView" : 4,
            "componentType" : 5126,
            "count" : 2056,
            "max" : [
                2.6025779247283936,
                1.126567006111145,
                2.612962007522583
            ],
            "min" : [
                -1.6321200132369995,
                0.16374200582504272,
                1.9479670524597168
            ],
            "type" : "VEC3"
        },
        {
            "bufferView" : 5,
            "componentType" : 5126,
            "count" : 2056,
            "type" : "VEC3"
        },
        {
            "bufferView" : 6,
            "componentType" : 5123,
            "count" : 4032,
            "type" : "SCALAR"
        },
        {
            "bufferView" : 7,
            "componentType" : 5126,
            "count" : 1912,
            "max" : [
                1.7398560047149658,
                1.0137419700622559,
                -2.6160778999328613
            ],
            "min" : [
                -0.8684049844741821,
                -0.17127199470996857,
                -3.1760809421539307
            ],
            "type" : "VEC3"
        },
        {
            "bufferView" : 8,
            "componentType" : 5126,
            "count" : 1912,
            "type" : "VEC3"
        },
        {
            "bufferView" : 9,
            "componentType" : 5123,
            "count" : 3780,
            "type" : "SCALAR"
        },
        {
            "bufferView" : 10,
            "componentType" : 5126,
            "count" : 398,
            "max" : [
                -1.8930599689483643,
                2.679711103439331,
                0.223813995718956
            ],
            "min" : [
                -2.383059024810791,
                -1.6598659753799438,
                -0.8130729794502258
            ],
            "type" : "VEC3"
        },
        {
            "bufferView" : 11,
            "componentType" : 5126,
            "count" : 398,
            "type" : "VEC3"
        },
        {
            "bufferView" : 12,
            "componentType" : 5123,
            "count" : 720,
            "type" : "SCALAR"
        },
        {
            "bufferView" : 13,
            "componentType" : 5126,
            "count" : 2132,
            "max" : [
                2.167367935180664,
                3.3867380619049072,
                0.223813995718956
            ],
            "min" : [
                -1.2770119905471802,
                2.826740026473999,
                -0.9611999988555908
            ],
            "type" : "VEC3"
        },
        {
            "bufferView" : 14,
            "componentType" : 5126,
            "count" : 2132,
            "type" : "VEC3"
        },
        {
            "bufferView" : 15,
            "componentType" : 5123,
            "count" : 4212,
            "type" : "SCALAR"
        },
        {
            "bufferView" : 16,
            "componentType" : 5126,
            "count" : 1500,
            "max" : [
                3.3614039421081543,
                2.6964290142059326,
                0.223813995718956
            ],
            "min" : [
                2.801403045654297,
                -1.6378649473190308,
                -0.8871359825134277
            ],
            "type" : "VEC3"
        },
        {
            "bufferView" : 17,
            "componentType" : 5126,
            "count" : 1500,
            "type" : "VEC3"
        },
        {
            "bufferView" : 18,
            "componentType" : 5123,
            "count" : 2928,
            "type" : "SCALAR"
        },
        {
            "bufferView" : 19,
            "componentType" : 5126,
            "count" : 1378,
            "max" : [
                2.252146005630493,
                -1.7957830429077148,
                0.223813995718956
            ],
            "min" : [
                -1.1906980276107788,
                -2.3557820320129395,
                -0.9611999988555908
            ],
            "type" : "VEC3"
        },
        {
            "bufferView" : 20,
            "componentType" : 5126,
            "count" : 1378,
            "type" : "VEC3"
        },
        {
            "bufferView" : 21,
            "componentType" : 5123,
            "count" : 2712,
            "type" : "SCALAR"
        }
    ],
    "bufferViews" : [
        {
            "buffer" : 0,
            "byteLength" : 9120,
            "byteOffset" : 0
        },
        {
            "buffer" : 0,
            "byteLength" : 9120,
            "byteOffset" : 9120
        },
        {
            "buffer" : 0,
            "byteLength" : 2376,
            "byteOffset" : 18240
        },
        {
            "buffer" : 0,
            "byteLength" : 990927,
            "byteOffset" : 20616
        },
        {
            "buffer" : 0,
            "byteLength" : 24672,
            "byteOffset" : 1011544
        },
        {
            "buffer" : 0,
            "byteLength" : 24672,
            "byteOffset" : 1036216
        },
        {
            "buffer" : 0,
            "byteLength" : 8064,
            "byteOffset" : 1060888
        },
        {
            "buffer" : 0,
            "byteLength" : 22944,
            "byteOffset" : 1068952
        },
        {
            "buffer" : 0,
            "byteLength" : 22944,
            "byteOffset" : 1091896
        },
        {
            "buffer" : 0,
            "byteLength" : 7560,
            "byteOffset" : 1114840
        },
        {
            "buffer" : 0,
            "byteLength" : 4776,
            "byteOffset" : 1122400
        },
        {
            "buffer" : 0,
            "byteLength" : 4776,
            "byteOffset" : 1127176
        },
        {
            "buffer" : 0,
            "byteLength" : 1440,
            "byteOffset" : 1131952
        },
        {
            "buffer" : 0,
            "byteLength" : 25584,
            "byteOffset" : 1133392
        },
        {
            "buffer" : 0,
            "byteLength" : 25584,
            "byteOffset" : 1158976
        },
        {
            "buffer" : 0,
            "byteLength" : 8424,
            "byteOffset" : 1184560
        },
        {
            "buffer" : 0,
            "byteLength" : 18000,
            "byteOffset" : 1192984
        },
        {
            "buffer" : 0,
            "byteLength" : 18000,
            "byteOffset" : 1210984
        },
        {
            "buffer" : 0,
            "byteLength" : 5856,
            "byteOffset" : 1228984
        },
        {
            "buffer" : 0,
            "byteLength" : 16536,
            "byteOffset" : 1234840
        },
        {
            "buffer" : 0,
            "byteLength" : 16536,
            "byteOffset" : 1251376
        },
        {
            "buffer" : 0,
            "byteLength" : 5424,
            "byteOffset" : 1267912
        }
    ],
    "buffers" : [
        {
            "byteLength" : 1273336,
            "uri" : "data:application/octet-stream;base64,"
        }
    ]
}
