{
    "asset" : {
        "generator" : "Khronos glTF Blender I/O v1.3.48",
        "version" : "2.0"
    },
    "scene" : 0,
    "scenes" : [
        {
            "name" : "Scene",
            "nodes" : [
                0
            ]
        }
    ],
    "nodes" : [
        {
            "mesh" : 0,
            "name" : "Dueldromo",
            "rotation" : [
                0.7071068286895752,
                0,
                0,
                0.7071067094802856
            ],
            "scale" : [
                0.19117873907089233,
                0.19117873907089233,
                0.19117873907089233
            ]
        }
    ],
    "materials" : [
        {
            "doubleSided" : true,
            "emissiveFactor" : [
                0,
                0,
                0
            ],
            "name" : "Stone_Vein_Gray",
            "pbrMetallicRoughness" : {
                "baseColorTexture" : {
                    "index" : 0,
                    "texCoord" : 0
                },
                "metallicFactor" : 0,
                "roughnessFactor" : 1
            }
        },
        {
            "doubleSided" : true,
            "emissiveFactor" : [
                0,
                0,
                0
            ],
            "name" : "Material.001",
            "pbrMetallicRoughness" : {
                "baseColorFactor" : [
                    0.008200002834200859,
                    0.010134169831871986,
                    0.8000000715255737,
                    1
                ],
                "metallicFactor" : 0,
                "roughnessFactor" : 0.5
            }
        },
        {
            "doubleSided" : true,
            "emissiveFactor" : [
                0,
                0,
                0
            ],
            "name" : "Translucent_Glass_Sky_Reflection.001",
            "pbrMetallicRoughness" : {
                "baseColorTexture" : {
                    "index" : 1,
                    "texCoord" : 0
                },
                "metallicFactor" : 0,
                "roughnessFactor" : 1
            }
        },
        {
            "doubleSided" : true,
            "emissiveFactor" : [
                0,
                0,
                0
            ],
            "name" : "FrontColor.001",
            "pbrMetallicRoughness" : {
                "baseColorFactor" : [
                    1,
                    0,
                    0.030363474041223526,
                    1
                ],
                "metallicFactor" : 0,
                "roughnessFactor" : 1
            }
        }
    ],
    "meshes" : [
        {
            "name" : "Dueldromo",
            "primitives" : [
                {
                    "attributes" : {
                        "POSITION" : 0,
                        "NORMAL" : 1,
                        "TEXCOORD_0" : 2
                    },
                    "indices" : 3,
                    "material" : 0
                },
                {
                    "attributes" : {
                        "POSITION" : 4,
                        "NORMAL" : 5,
                        "TEXCOORD_0" : 6
                    },
                    "indices" : 7,
                    "material" : 1
                },
                {
                    "attributes" : {
                        "POSITION" : 8,
                        "NORMAL" : 9,
                        "TEXCOORD_0" : 10
                    },
                    "indices" : 11,
                    "material" : 2
                },
                {
                    "attributes" : {
                        "POSITION" : 12,
                        "NORMAL" : 13,
                        "TEXCOORD_0" : 14
                    },
                    "indices" : 15,
                    "material" : 3
                }
            ]
        }
    ],
    "textures" : [
        {
            "source" : 0
        },
        {
            "source" : 1
        }
    ],
    "images" : [
        {
            "bufferView" : 4,
            "mimeType" : "image/jpeg",
            "name" : "Stone_Vein_Gray"
        },
        {
            "bufferView" : 13,
            "mimeType" : "image/jpeg",
            "name" : "Translucent_Glass_Sky_Reflection"
        }
    ],
    "accessors" : [
        {
            "bufferView" : 0,
            "componentType" : 5126,
            "count" : 2193,
            "max" : [
                148.10899353027344,
                183.33599853515625,
                0
            ],
            "min" : [
                -148.10899353027344,
                -148.10899353027344,
                -197.35699462890625
            ],
            "type" : "VEC3"
        },
        {
            "bufferView" : 1,
            "componentType" : 5126,
            "count" : 2193,
            "type" : "VEC3"
        },
        {
            "bufferView" : 2,
            "componentType" : 5126,
            "count" : 2193,
            "type" : "VEC2"
        },
        {
            "bufferView" : 3,
            "componentType" : 5123,
            "count" : 3909,
            "type" : "SCALAR"
        },
        {
            "bufferView" : 5,
            "componentType" : 5126,
            "count" : 360,
            "max" : [
                77.67739868164062,
                183.33599853515625,
                -145.7760009765625
            ],
            "min" : [
                -79.23979949951172,
                180.83599853515625,
                -171.51699829101562
            ],
            "type" : "VEC3"
        },
        {
            "bufferView" : 6,
            "componentType" : 5126,
            "count" : 360,
            "type" : "VEC3"
        },
        {
            "bufferView" : 7,
            "componentType" : 5126,
            "count" : 360,
            "type" : "VEC2"
        },
        {
            "bufferView" : 8,
            "componentType" : 5123,
            "count" : 1047,
            "type" : "SCALAR"
        },
        {
            "bufferView" : 9,
            "componentType" : 5126,
            "count" : 552,
            "max" : [
                120.48600006103516,
                120.48600006103516,
                -190.06300354003906
            ],
            "min" : [
                -120.48600006103516,
                -120.48600006103516,
                -306.8370056152344
            ],
            "type" : "VEC3"
        },
        {
            "bufferView" : 10,
            "componentType" : 5126,
            "count" : 552,
            "type" : "VEC3"
        },
        {
            "bufferView" : 11,
            "componentType" : 5126,
            "count" : 552,
            "type" : "VEC2"
        },
        {
            "bufferView" : 12,
            "componentType" : 5123,
            "count" : 792,
            "type" : "SCALAR"
        },
        {
            "bufferView" : 14,
            "componentType" : 5126,
            "count" : 271,
            "max" : [
                120.16100311279297,
                180.83599853515625,
                0
            ],
            "min" : [
                -120.16100311279297,
                -120.16100311279297,
                -303.8590087890625
            ],
            "type" : "VEC3"
        },
        {
            "bufferView" : 15,
            "componentType" : 5126,
            "count" : 271,
            "type" : "VEC3"
        },
        {
            "bufferView" : 16,
            "componentType" : 5126,
            "count" : 271,
            "type" : "VEC2"
        },
        {
            "bufferView" : 17,
            "componentType" : 5123,
            "count" : 639,
            "type" : "SCALAR"
        }
    ],
    "bufferViews" : [
        {
            "buffer" : 0,
            "byteLength" : 26316,
            "byteOffset" : 0
        },
        {
            "buffer" : 0,
            "byteLength" : 26316,
            "byteOffset" : 26316
        },
        {
            "buffer" : 0,
            "byteLength" : 17544,
            "byteOffset" : 52632
        },
        {
            "buffer" : 0,
            "byteLength" : 7818,
            "byteOffset" : 70176
        },
        {
            "buffer" : 0,
            "byteLength" : 23763,
            "byteOffset" : 77996
        },
        {
            "buffer" : 0,
            "byteLength" : 4320,
            "byteOffset" : 101760
        },
        {
            "buffer" : 0,
            "byteLength" : 4320,
            "byteOffset" : 106080
        },
        {
            "buffer" : 0,
            "byteLength" : 2880,
            "byteOffset" : 110400
        },
        {
            "buffer" : 0,
            "byteLength" : 2094,
            "byteOffset" : 113280
        },
        {
            "buffer" : 0,
            "byteLength" : 6624,
            "byteOffset" : 115376
        },
        {
            "buffer" : 0,
            "byteLength" : 6624,
            "byteOffset" : 122000
        },
        {
            "buffer" : 0,
            "byteLength" : 4416,
            "byteOffset" : 128624
        },
        {
            "buffer" : 0,
            "byteLength" : 1584,
            "byteOffset" : 133040
        },
        {
            "buffer" : 0,
            "byteLength" : 7816,
            "byteOffset" : 134624
        },
        {
            "buffer" : 0,
            "byteLength" : 3252,
            "byteOffset" : 142440
        },
        {
            "buffer" : 0,
            "byteLength" : 3252,
            "byteOffset" : 145692
        },
        {
            "buffer" : 0,
            "byteLength" : 2168,
            "byteOffset" : 148944
        },
        {
            "buffer" : 0,
            "byteLength" : 1278,
            "byteOffset" : 151112
        }
    ],
    "buffers" : [
        {
            "byteLength" : 152392,
            "uri" : "data:application/octet-stream;base64,"
        }
    ]
}
