{
    "asset" : {
        "generator" : "Khronos glTF Blender I/O v1.3.48",
        "version" : "2.0"
    },
    "scene" : 0,
    "scenes" : [
        {
            "name" : "Scene",
            "nodes" : [
                16
            ]
        }
    ],
    "nodes" : [
        {
            "mesh" : 0,
            "name" : "Circle_0"
        },
        {
            "children" : [
                0
            ],
            "name" : "Circle",
            "rotation" : [
                0,
                0,
                0.19771721959114075,
                0.980259120464325
            ],
            "scale" : [
                1.000004529953003,
                1.000004529953003,
                1
            ],
            "translation" : [
                0,
                0,
                0.45855000615119934
            ]
        },
        {
            "mesh" : 1,
            "name" : "Circle.001_0"
        },
        {
            "children" : [
                2
            ],
            "name" : "Circle.001",
            "rotation" : [
                0,
                0,
                0.1957675665616989,
                0.9806503653526306
            ],
            "scale" : [
                0.30727237462997437,
                0.30727237462997437,
                0.30726999044418335
            ],
            "translation" : [
                0,
                0,
                0.3776400089263916
            ]
        },
        {
            "name" : "Cube_0"
        },
        {
            "children" : [
                4
            ],
            "name" : "Cube",
            "rotation" : [
                0,
                0,
                -1,
                0
            ],
            "scale" : [
                -13.6068696975708,
                -10.349260330200195,
                -0.08003000169992447
            ],
            "translation" : [
                0,
                0,
                0.18737000226974487
            ]
        },
        {
            "name" : "Lamp.001"
        },
        {
            "children" : [
                6
            ],
            "name" : "Lamp",
            "rotation" : [
                0.16907447576522827,
                0.2721706032752991,
                0.7558797597885132,
                0.5709490180015564
            ],
            "scale" : [
                0.9999975562095642,
                0.9999958276748657,
                0.9999960660934448
            ],
            "translation" : [
                4.076250076293945,
                1.0054500102996826,
                5.903860092163086
            ]
        },
        {
            "mesh" : 2,
            "name" : "Sphere_0"
        },
        {
            "children" : [
                8
            ],
            "name" : "Sphere",
            "scale" : [
                0.05415000021457672,
                0.05415000021457672,
                0.05415000021457672
            ],
            "translation" : [
                0,
                0,
                2.258650064468384
            ]
        },
        {
            "mesh" : 3,
            "name" : "Sphere.001_0"
        },
        {
            "children" : [
                10
            ],
            "name" : "Sphere.001",
            "scale" : [
                0.07360000163316727,
                0.07311999797821045,
                0.16535000503063202
            ],
            "translation" : [
                0,
                0,
                2.47721004486084
            ]
        },
        {
            "mesh" : 4,
            "name" : "Torus_0"
        },
        {
            "children" : [
                12
            ],
            "name" : "Torus"
        },
        {
            "children" : [
                1,
                3,
                5,
                7,
                9,
                11,
                13
            ],
            "name" : "Root"
        },
        {
            "children" : [
                14
            ],
            "name" : "RootNode (model correction matrix)"
        },
        {
            "children" : [
                15
            ],
            "name" : "RootNode (gltf orientation matrix)",
            "rotation" : [
                -0.7071068286895752,
                0,
                0,
                0.7071068286895752
            ]
        }
    ],
    "materials" : [
        {
            "doubleSided" : true,
            "emissiveFactor" : [
                0,
                0,
                0
            ],
            "name" : "Root",
            "pbrMetallicRoughness" : {
                "baseColorFactor" : [
                    1,
                    1,
                    1,
                    1
                ],
                "metallicFactor" : 0,
                "roughnessFactor" : 0.6000000238418579
            }
        }
    ],
    "meshes" : [
        {
            "name" : "Circle_0",
            "primitives" : [
                {
                    "attributes" : {
                        "POSITION" : 0,
                        "NORMAL" : 1
                    },
                    "indices" : 2,
                    "material" : 0
                }
            ]
        },
        {
            "name" : "Circle.001_0",
            "primitives" : [
                {
                    "attributes" : {
                        "POSITION" : 3,
                        "NORMAL" : 4
                    },
                    "indices" : 5,
                    "material" : 0
                }
            ]
        },
        {
            "name" : "Sphere_0",
            "primitives" : [
                {
                    "attributes" : {
                        "POSITION" : 6,
                        "NORMAL" : 7
                    },
                    "indices" : 8,
                    "material" : 0
                }
            ]
        },
        {
            "name" : "Sphere.001_0",
            "primitives" : [
                {
                    "attributes" : {
                        "POSITION" : 9,
                        "NORMAL" : 10
                    },
                    "indices" : 8,
                    "material" : 0
                }
            ]
        },
        {
            "name" : "Torus_0",
            "primitives" : [
                {
                    "attributes" : {
                        "POSITION" : 11,
                        "NORMAL" : 12
                    },
                    "indices" : 13,
                    "material" : 0
                }
            ]
        }
    ],
    "accessors" : [
        {
            "bufferView" : 0,
            "componentType" : 5126,
            "count" : 534,
            "max" : [
                0.6505799889564514,
                0.6505799889564514,
                0.07441999763250351
            ],
            "min" : [
                -0.6505799889564514,
                -0.6505799889564514,
                -0.0817599967122078
            ],
            "type" : "VEC3"
        },
        {
            "bufferView" : 1,
            "componentType" : 5126,
            "count" : 534,
            "type" : "VEC3"
        },
        {
            "bufferView" : 2,
            "componentType" : 5123,
            "count" : 624,
            "type" : "SCALAR"
        },
        {
            "bufferView" : 3,
            "componentType" : 5126,
            "count" : 1540,
            "max" : [
                1.5697400569915771,
                1.5809400081634521,
                6.101369857788086
            ],
            "min" : [
                -1.5697400569915771,
                -1.5809400081634521,
                0
            ],
            "type" : "VEC3"
        },
        {
            "bufferView" : 4,
            "componentType" : 5126,
            "count" : 1540,
            "type" : "VEC3"
        },
        {
            "bufferView" : 5,
            "componentType" : 5123,
            "count" : 1680,
            "type" : "SCALAR"
        },
        {
            "bufferView" : 6,
            "componentType" : 5126,
            "count" : 482,
            "max" : [
                1,
                1,
                1
            ],
            "min" : [
                -1,
                -1,
                -1
            ],
            "type" : "VEC3"
        },
        {
            "bufferView" : 7,
            "componentType" : 5126,
            "count" : 482,
            "type" : "VEC3"
        },
        {
            "bufferView" : 8,
            "componentType" : 5123,
            "count" : 2880,
            "type" : "SCALAR"
        },
        {
            "bufferView" : 9,
            "componentType" : 5126,
            "count" : 482,
            "max" : [
                0.9807800054550171,
                0.9807900190353394,
                1.0137300491333008
            ],
            "min" : [
                -0.9807800054550171,
                -0.9807800054550171,
                -1
            ],
            "type" : "VEC3"
        },
        {
            "bufferView" : 10,
            "componentType" : 5126,
            "count" : 482,
            "type" : "VEC3"
        },
        {
            "bufferView" : 11,
            "componentType" : 5126,
            "count" : 2178,
            "max" : [
                1.1257200241088867,
                1.1257200241088867,
                0.37973999977111816
            ],
            "min" : [
                -1.1257200241088867,
                -1.1257200241088867,
                0.11567000299692154
            ],
            "type" : "VEC3"
        },
        {
            "bufferView" : 12,
            "componentType" : 5126,
            "count" : 2178,
            "type" : "VEC3"
        },
        {
            "bufferView" : 13,
            "componentType" : 5123,
            "count" : 2304,
            "type" : "SCALAR"
        }
    ],
    "bufferViews" : [
        {
            "buffer" : 0,
            "byteLength" : 6408,
            "byteOffset" : 0
        },
        {
            "buffer" : 0,
            "byteLength" : 6408,
            "byteOffset" : 6408
        },
        {
            "buffer" : 0,
            "byteLength" : 1248,
            "byteOffset" : 12816
        },
        {
            "buffer" : 0,
            "byteLength" : 18480,
            "byteOffset" : 14064
        },
        {
            "buffer" : 0,
            "byteLength" : 18480,
            "byteOffset" : 32544
        },
        {
            "buffer" : 0,
            "byteLength" : 3360,
            "byteOffset" : 51024
        },
        {
            "buffer" : 0,
            "byteLength" : 5784,
            "byteOffset" : 54384
        },
        {
            "buffer" : 0,
            "byteLength" : 5784,
            "byteOffset" : 60168
        },
        {
            "buffer" : 0,
            "byteLength" : 5760,
            "byteOffset" : 65952
        },
        {
            "buffer" : 0,
            "byteLength" : 5784,
            "byteOffset" : 71712
        },
        {
            "buffer" : 0,
            "byteLength" : 5784,
            "byteOffset" : 77496
        },
        {
            "buffer" : 0,
            "byteLength" : 26136,
            "byteOffset" : 83280
        },
        {
            "buffer" : 0,
            "byteLength" : 26136,
            "byteOffset" : 109416
        },
        {
            "buffer" : 0,
            "byteLength" : 4608,
            "byteOffset" : 135552
        }
    ],
    "buffers" : [
        {
            "byteLength" : 140160,
            "uri" : "data:application/octet-stream;base64,"
        }
    ]
}
