{
    "asset" : {
        "generator" : "Khronos glTF Blender I/O v1.3.48",
        "version" : "2.0"
    },
    "scene" : 0,
    "scenes" : [
        {
            "name" : "Scene",
            "nodes" : [
                0
            ]
        }
    ],
    "nodes" : [
        {
            "mesh" : 0,
            "name" : "13450_Bag_of_Gold_v1_L3",
            "rotation" : [
                0.0253747645765543,
                -0.0004417364834807813,
                -0.01740025356411934,
                0.9995265603065491
            ],
            "scale" : [
                0.3199310302734375,
                0.3199310302734375,
                0.3199310898780823
            ]
        }
    ],
    "materials" : [
        {
            "doubleSided" : true,
            "emissiveFactor" : [
                0,
                0,
                0
            ],
            "name" : "01___13450_Bag_of_gold",
            "pbrMetallicRoughness" : {
                "baseColorTexture" : {
                    "index" : 0,
                    "texCoord" : 0
                },
                "metallicFactor" : 0,
                "roughnessFactor" : 0.8174257874488831
            }
        }
    ],
    "meshes" : [
        {
            "name" : "13450_Bag_of_Gold_v1_L3",
            "primitives" : [
                {
                    "attributes" : {
                        "POSITION" : 0,
                        "NORMAL" : 1,
                        "TEXCOORD_0" : 2
                    },
                    "indices" : 3,
                    "material" : 0
                }
            ]
        }
    ],
    "textures" : [
        {
            "source" : 0
        }
    ],
    "images" : [
        {
            "bufferView" : 4,
            "mimeType" : "image/jpeg",
            "name" : "13450_Bag_of_Gold_diff"
        }
    ],
    "accessors" : [
        {
            "bufferView" : 0,
            "componentType" : 5126,
            "count" : 17796,
            "max" : [
                8.702300071716309,
                18.73859977722168,
                9.062700271606445
            ],
            "min" : [
                -9.164999961853027,
                0.05299999937415123,
                -9.6048002243042
            ],
            "type" : "VEC3"
        },
        {
            "bufferView" : 1,
            "componentType" : 5126,
            "count" : 17796,
            "type" : "VEC3"
        },
        {
            "bufferView" : 2,
            "componentType" : 5126,
            "count" : 17796,
            "type" : "VEC2"
        },
        {
            "bufferView" : 3,
            "componentType" : 5123,
            "count" : 101424,
            "type" : "SCALAR"
        }
    ],
    "bufferViews" : [
        {
            "buffer" : 0,
            "byteLength" : 213552,
            "byteOffset" : 0
        },
        {
            "buffer" : 0,
            "byteLength" : 213552,
            "byteOffset" : 213552
        },
        {
            "buffer" : 0,
            "byteLength" : 142368,
            "byteOffset" : 427104
        },
        {
            "buffer" : 0,
            "byteLength" : 202848,
            "byteOffset" : 569472
        },
        {
            "buffer" : 0,
            "byteLength" : 866143,
            "byteOffset" : 772320
        }
    ],
    "buffers" : [
        {
            "byteLength" : 1638464,
            "uri" : "data:application/octet-stream;base64,"
        }
    ]
}
