{
    "asset" : {
        "generator" : "Khronos glTF Blender I/O v1.3.48",
        "version" : "2.0"
    },
    "scene" : 0,
    "scenes" : [
        {
            "name" : "Scene",
            "nodes" : [
                0
            ]
        }
    ],
    "nodes" : [
        {
            "mesh" : 0,
            "name" : "18931_Heart_Key_new",
            "rotation" : [
                0.7071068286895752,
                0,
                0,
                0.7071067094802856
            ],
            "translation" : [
                0,
                0.9083254337310791,
                0
            ]
        }
    ],
    "materials" : [
        {
            "doubleSided" : true,
            "name" : "_18931_Heart_Key_v1_18931_Heart_Key_v107___Default",
            "pbrMetallicRoughness" : {}
        }
    ],
    "meshes" : [
        {
            "name" : "18931_Heart_Key_new",
            "primitives" : [
                {
                    "attributes" : {
                        "POSITION" : 0,
                        "NORMAL" : 1,
                        "TEXCOORD_0" : 2
                    },
                    "indices" : 3,
                    "material" : 0
                }
            ]
        }
    ],
    "accessors" : [
        {
            "bufferView" : 0,
            "componentType" : 5126,
            "count" : 34367,
            "max" : [
                0.7009000182151794,
                5.480400085449219,
                0.8794999718666077
            ],
            "min" : [
                -1.8707000017166138,
                -5.109000205993652,
                0.012799999676644802
            ],
            "type" : "VEC3"
        },
        {
            "bufferView" : 1,
            "componentType" : 5126,
            "count" : 34367,
            "type" : "VEC3"
        },
        {
            "bufferView" : 2,
            "componentType" : 5126,
            "count" : 34367,
            "type" : "VEC2"
        },
        {
            "bufferView" : 3,
            "componentType" : 5123,
            "count" : 201204,
            "type" : "SCALAR"
        }
    ],
    "bufferViews" : [
        {
            "buffer" : 0,
            "byteLength" : 412404,
            "byteOffset" : 0
        },
        {
            "buffer" : 0,
            "byteLength" : 412404,
            "byteOffset" : 412404
        },
        {
            "buffer" : 0,
            "byteLength" : 274936,
            "byteOffset" : 824808
        },
        {
            "buffer" : 0,
            "byteLength" : 402408,
            "byteOffset" : 1099744
        }
    ],
    "buffers" : [
        {
            "byteLength" : 1502152,
            "uri" : "data:application/octet-stream;base64,"
        }
    ]
}
