{
    "asset" : {
        "generator" : "Khronos glTF Blender I/O v1.3.48",
        "version" : "2.0"
    },
    "scene" : 0,
    "scenes" : [
        {
            "name" : "Scene",
            "nodes" : [
                16
            ]
        }
    ],
    "nodes" : [
        {
            "mesh" : 0,
            "name" : "Mesh1_White1_0",
            "translation" : [
                -682.944580078125,
                -14.150264739990234,
                70.83943939208984
            ]
        },
        {
            "children" : [
                0
            ],
            "name" : "Mesh1"
        },
        {
            "children" : [
                1
            ],
            "name" : "Group_10_1"
        },
        {
            "children" : [
                2
            ],
            "name" : "Group48_2"
        },
        {
            "mesh" : 1,
            "name" : "Mesh2_Color_J06_0",
            "translation" : [
                -682.944580078125,
                -14.150264739990234,
                70.83943939208984
            ]
        },
        {
            "children" : [
                4
            ],
            "name" : "Mesh2"
        },
        {
            "children" : [
                3,
                5
            ],
            "name" : "Group_9_1"
        },
        {
            "mesh" : 2,
            "name" : "Mesh3_Color_J06_0",
            "translation" : [
                -682.944580078125,
                -14.150264739990234,
                70.83943939208984
            ]
        },
        {
            "children" : [
                7
            ],
            "name" : "Mesh3"
        },
        {
            "children" : [
                6,
                8
            ],
            "name" : "Group_8_1"
        },
        {
            "children" : [
                9
            ],
            "name" : "Group47_1"
        },
        {
            "children" : [
                10
            ],
            "name" : "Component_4_1"
        },
        {
            "children" : [
                11
            ],
            "name" : "Model"
        },
        {
            "children" : [
                12
            ],
            "name" : "RootNode"
        },
        {
            "children" : [
                13
            ],
            "name" : "c5a15305561e44798424cd271a91476d.fbx",
            "rotation" : [
                0.7071068286895752,
                0,
                0,
                0.7071068286895752
            ]
        },
        {
            "children" : [
                14
            ],
            "name" : "RootNode (model correction matrix)"
        },
        {
            "children" : [
                15
            ],
            "name" : "RootNode (gltf orientation matrix)",
            "rotation" : [
                -0.7071068286895752,
                0,
                0,
                0.7071068286895752
            ]
        }
    ],
    "materials" : [
        {
            "doubleSided" : true,
            "emissiveFactor" : [
                0,
                0,
                0
            ],
            "name" : "White1",
            "pbrMetallicRoughness" : {
                "baseColorFactor" : [
                    1,
                    1,
                    1,
                    1
                ],
                "metallicFactor" : 0,
                "roughnessFactor" : 0.9302135109901428
            }
        },
        {
            "doubleSided" : true,
            "emissiveFactor" : [
                0,
                0,
                0
            ],
            "name" : "Color_J06",
            "pbrMetallicRoughness" : {
                "baseColorFactor" : [
                    0.4000000059604645,
                    0,
                    0.800000011920929,
                    1
                ],
                "metallicFactor" : 0,
                "roughnessFactor" : 0.9302135109901428
            }
        }
    ],
    "meshes" : [
        {
            "name" : "Mesh1_White1_0",
            "primitives" : [
                {
                    "attributes" : {
                        "POSITION" : 0,
                        "NORMAL" : 1,
                        "TEXCOORD_0" : 2,
                        "TEXCOORD_1" : 3,
                        "TEXCOORD_2" : 4,
                        "TEXCOORD_3" : 5,
                        "TEXCOORD_4" : 6,
                        "TEXCOORD_5" : 7,
                        "TEXCOORD_6" : 8,
                        "TEXCOORD_7" : 9
                    },
                    "indices" : 10,
                    "material" : 0
                }
            ]
        },
        {
            "name" : "Mesh2_Color_J06_0",
            "primitives" : [
                {
                    "attributes" : {
                        "POSITION" : 11,
                        "NORMAL" : 12,
                        "TEXCOORD_0" : 13,
                        "TEXCOORD_1" : 14,
                        "TEXCOORD_2" : 15,
                        "TEXCOORD_3" : 16,
                        "TEXCOORD_4" : 17,
                        "TEXCOORD_5" : 18,
                        "TEXCOORD_6" : 19,
                        "TEXCOORD_7" : 20
                    },
                    "indices" : 21,
                    "material" : 1
                }
            ]
        },
        {
            "name" : "Mesh3_Color_J06_0",
            "primitives" : [
                {
                    "attributes" : {
                        "POSITION" : 22,
                        "NORMAL" : 23,
                        "TEXCOORD_0" : 24,
                        "TEXCOORD_1" : 25,
                        "TEXCOORD_2" : 26,
                        "TEXCOORD_3" : 27,
                        "TEXCOORD_4" : 28,
                        "TEXCOORD_5" : 29,
                        "TEXCOORD_6" : 30,
                        "TEXCOORD_7" : 31
                    },
                    "indices" : 32,
                    "material" : 1
                }
            ]
        }
    ],
    "accessors" : [
        {
            "bufferView" : 0,
            "componentType" : 5126,
            "count" : 570,
            "max" : [
                691.8677368164062,
                31.24819564819336,
                -51.987831115722656
            ],
            "min" : [
                671.62451171875,
                26.953109741210938,
                -80.32049560546875
            ],
            "type" : "VEC3"
        },
        {
            "bufferView" : 1,
            "componentType" : 5126,
            "count" : 570,
            "type" : "VEC3"
        },
        {
            "bufferView" : 2,
            "componentType" : 5126,
            "count" : 570,
            "type" : "VEC2"
        },
        {
            "bufferView" : 3,
            "componentType" : 5126,
            "count" : 570,
            "type" : "VEC2"
        },
        {
            "bufferView" : 4,
            "componentType" : 5126,
            "count" : 570,
            "type" : "VEC2"
        },
        {
            "bufferView" : 5,
            "componentType" : 5126,
            "count" : 570,
            "type" : "VEC2"
        },
        {
            "bufferView" : 6,
            "componentType" : 5126,
            "count" : 570,
            "type" : "VEC2"
        },
        {
            "bufferView" : 7,
            "componentType" : 5126,
            "count" : 570,
            "type" : "VEC2"
        },
        {
            "bufferView" : 8,
            "componentType" : 5126,
            "count" : 570,
            "type" : "VEC2"
        },
        {
            "bufferView" : 9,
            "componentType" : 5126,
            "count" : 570,
            "type" : "VEC2"
        },
        {
            "bufferView" : 10,
            "componentType" : 5123,
            "count" : 570,
            "type" : "SCALAR"
        },
        {
            "bufferView" : 11,
            "componentType" : 5126,
            "count" : 114,
            "max" : [
                690.4383544921875,
                39.24059295654297,
                -52.30490493774414
            ],
            "min" : [
                672.66064453125,
                28.96133804321289,
                -79.33061218261719
            ],
            "type" : "VEC3"
        },
        {
            "bufferView" : 12,
            "componentType" : 5126,
            "count" : 114,
            "type" : "VEC3"
        },
        {
            "bufferView" : 13,
            "componentType" : 5126,
            "count" : 114,
            "type" : "VEC2"
        },
        {
            "bufferView" : 14,
            "componentType" : 5126,
            "count" : 114,
            "type" : "VEC2"
        },
        {
            "bufferView" : 15,
            "componentType" : 5126,
            "count" : 114,
            "type" : "VEC2"
        },
        {
            "bufferView" : 16,
            "componentType" : 5126,
            "count" : 114,
            "type" : "VEC2"
        },
        {
            "bufferView" : 17,
            "componentType" : 5126,
            "count" : 114,
            "type" : "VEC2"
        },
        {
            "bufferView" : 18,
            "componentType" : 5126,
            "count" : 114,
            "type" : "VEC2"
        },
        {
            "bufferView" : 19,
            "componentType" : 5126,
            "count" : 114,
            "type" : "VEC2"
        },
        {
            "bufferView" : 20,
            "componentType" : 5126,
            "count" : 114,
            "type" : "VEC2"
        },
        {
            "bufferView" : 21,
            "componentType" : 5123,
            "count" : 114,
            "type" : "SCALAR"
        },
        {
            "bufferView" : 22,
            "componentType" : 5126,
            "count" : 480,
            "max" : [
                697.2640991210938,
                35.42576217651367,
                -45.12602233886719
            ],
            "min" : [
                666.1754150390625,
                26.13694190979004,
                -85.3231201171875
            ],
            "type" : "VEC3"
        },
        {
            "bufferView" : 23,
            "componentType" : 5126,
            "count" : 480,
            "type" : "VEC3"
        },
        {
            "bufferView" : 24,
            "componentType" : 5126,
            "count" : 480,
            "type" : "VEC2"
        },
        {
            "bufferView" : 25,
            "componentType" : 5126,
            "count" : 480,
            "type" : "VEC2"
        },
        {
            "bufferView" : 26,
            "componentType" : 5126,
            "count" : 480,
            "type" : "VEC2"
        },
        {
            "bufferView" : 27,
            "componentType" : 5126,
            "count" : 480,
            "type" : "VEC2"
        },
        {
            "bufferView" : 28,
            "componentType" : 5126,
            "count" : 480,
            "type" : "VEC2"
        },
        {
            "bufferView" : 29,
            "componentType" : 5126,
            "count" : 480,
            "type" : "VEC2"
        },
        {
            "bufferView" : 30,
            "componentType" : 5126,
            "count" : 480,
            "type" : "VEC2"
        },
        {
            "bufferView" : 31,
            "componentType" : 5126,
            "count" : 480,
            "type" : "VEC2"
        },
        {
            "bufferView" : 32,
            "componentType" : 5123,
            "count" : 480,
            "type" : "SCALAR"
        }
    ],
    "bufferViews" : [
        {
            "buffer" : 0,
            "byteLength" : 6840,
            "byteOffset" : 0
        },
        {
            "buffer" : 0,
            "byteLength" : 6840,
            "byteOffset" : 6840
        },
        {
            "buffer" : 0,
            "byteLength" : 4560,
            "byteOffset" : 13680
        },
        {
            "buffer" : 0,
            "byteLength" : 4560,
            "byteOffset" : 18240
        },
        {
            "buffer" : 0,
            "byteLength" : 4560,
            "byteOffset" : 22800
        },
        {
            "buffer" : 0,
            "byteLength" : 4560,
            "byteOffset" : 27360
        },
        {
            "buffer" : 0,
            "byteLength" : 4560,
            "byteOffset" : 31920
        },
        {
            "buffer" : 0,
            "byteLength" : 4560,
            "byteOffset" : 36480
        },
        {
            "buffer" : 0,
            "byteLength" : 4560,
            "byteOffset" : 41040
        },
        {
            "buffer" : 0,
            "byteLength" : 4560,
            "byteOffset" : 45600
        },
        {
            "buffer" : 0,
            "byteLength" : 1140,
            "byteOffset" : 50160
        },
        {
            "buffer" : 0,
            "byteLength" : 1368,
            "byteOffset" : 51300
        },
        {
            "buffer" : 0,
            "byteLength" : 1368,
            "byteOffset" : 52668
        },
        {
            "buffer" : 0,
            "byteLength" : 912,
            "byteOffset" : 54036
        },
        {
            "buffer" : 0,
            "byteLength" : 912,
            "byteOffset" : 54948
        },
        {
            "buffer" : 0,
            "byteLength" : 912,
            "byteOffset" : 55860
        },
        {
            "buffer" : 0,
            "byteLength" : 912,
            "byteOffset" : 56772
        },
        {
            "buffer" : 0,
            "byteLength" : 912,
            "byteOffset" : 57684
        },
        {
            "buffer" : 0,
            "byteLength" : 912,
            "byteOffset" : 58596
        },
        {
            "buffer" : 0,
            "byteLength" : 912,
            "byteOffset" : 59508
        },
        {
            "buffer" : 0,
            "byteLength" : 912,
            "byteOffset" : 60420
        },
        {
            "buffer" : 0,
            "byteLength" : 228,
            "byteOffset" : 61332
        },
        {
            "buffer" : 0,
            "byteLength" : 5760,
            "byteOffset" : 61560
        },
        {
            "buffer" : 0,
            "byteLength" : 5760,
            "byteOffset" : 67320
        },
        {
            "buffer" : 0,
            "byteLength" : 3840,
            "byteOffset" : 73080
        },
        {
            "buffer" : 0,
            "byteLength" : 3840,
            "byteOffset" : 76920
        },
        {
            "buffer" : 0,
            "byteLength" : 3840,
            "byteOffset" : 80760
        },
        {
            "buffer" : 0,
            "byteLength" : 3840,
            "byteOffset" : 84600
        },
        {
            "buffer" : 0,
            "byteLength" : 3840,
            "byteOffset" : 88440
        },
        {
            "buffer" : 0,
            "byteLength" : 3840,
            "byteOffset" : 92280
        },
        {
            "buffer" : 0,
            "byteLength" : 3840,
            "byteOffset" : 96120
        },
        {
            "buffer" : 0,
            "byteLength" : 3840,
            "byteOffset" : 99960
        },
        {
            "buffer" : 0,
            "byteLength" : 960,
            "byteOffset" : 103800
        }
    ],
    "buffers" : [
        {
            "byteLength" : 104760,
            "uri" : "data:application/octet-stream;base64,"
        }
    ]
}
