{
    "asset" : {
        "generator" : "Khronos glTF Blender I/O v1.3.48",
        "version" : "2.0"
    },
    "scene" : 0,
    "scenes" : [
        {
            "name" : "Scene",
            "nodes" : [
                1,
                5,
                7,
                9,
                11
            ]
        }
    ],
    "nodes" : [
        {
            "mesh" : 0,
            "name" : "Cylinder.003_0"
        },
        {
            "children" : [
                0
            ],
            "name" : "Cylinder.003",
            "rotation" : [
                -0.7037103772163391,
                0,
                0,
                0.7104869484901428
            ],
            "scale" : [
                0.04405999928712845,
                0.04405999928712845,
                0.04405999928712845
            ],
            "translation" : [
                0.34424257278442383,
                0.836205005645752,
                -0.12617826461791992
            ]
        },
        {
            "mesh" : 1,
            "name" : "Cylinder.004_0"
        },
        {
            "mesh" : 2,
            "name" : "Cylinder.004_1"
        },
        {
            "mesh" : 3,
            "name" : "Cylinder.004_2"
        },
        {
            "children" : [
                2,
                3,
                4
            ],
            "name" : "Cylinder.004",
            "rotation" : [
                -0.7037103772163391,
                0,
                0,
                0.7104869484901428
            ],
            "scale" : [
                0.15846000611782074,
                0.15846000611782074,
                0.15846000611782074
            ],
            "translation" : [
                1.1629223823547363,
                1.1310882568359375,
                -0.1428227424621582
            ]
        },
        {
            "mesh" : 4,
            "name" : "Cylinder.000_0"
        },
        {
            "children" : [
                6
            ],
            "name" : "Cylinder.000",
            "rotation" : [
                -0.7037103772163391,
                0,
                0,
                0.7104869484901428
            ],
            "scale" : [
                0.44356000423431396,
                0.44356000423431396,
                0.44356000423431396
            ],
            "translation" : [
                -0.5751774311065674,
                0.6077247262001038,
                -0.13974833488464355
            ]
        },
        {
            "mesh" : 5,
            "name" : "Cylinder.001_0"
        },
        {
            "children" : [
                8
            ],
            "name" : "Cylinder.001",
            "rotation" : [
                -0.7037103772163391,
                0,
                0,
                0.7104869484901428
            ],
            "scale" : [
                0.04405999928712845,
                0.04405999928712845,
                0.04405999928712845
            ],
            "translation" : [
                -0.5728874206542969,
                0.8504544496536255,
                -0.12604141235351562
            ]
        },
        {
            "mesh" : 6,
            "name" : "Cylinder.002_0"
        },
        {
            "children" : [
                10
            ],
            "name" : "Cylinder.002",
            "rotation" : [
                -0.7037103772163391,
                0,
                0,
                0.7104869484901428
            ],
            "scale" : [
                0.15846000611782074,
                0.15846000611782074,
                0.15846000611782074
            ],
            "translation" : [
                -0.5758674144744873,
                1.2121144533157349,
                -0.14204621315002441
            ]
        }
    ],
    "materials" : [
        {
            "doubleSided" : true,
            "emissiveFactor" : [
                0,
                0,
                0
            ],
            "name" : "Cylinder.003_0",
            "pbrMetallicRoughness" : {
                "baseColorFactor" : [
                    1,
                    1,
                    1,
                    1
                ],
                "metallicFactor" : 0,
                "roughnessFactor" : 0.6000000238418579
            }
        },
        {
            "doubleSided" : true,
            "emissiveFactor" : [
                1,
                1,
                1
            ],
            "name" : "Material.004",
            "pbrMetallicRoughness" : {
                "baseColorFactor" : [
                    0.6925509572029114,
                    0.6731639504432678,
                    0.029327701777219772,
                    1
                ],
                "metallicFactor" : 0,
                "roughnessFactor" : 0.6000000238418579
            }
        },
        {
            "doubleSided" : true,
            "emissiveFactor" : [
                0,
                0,
                0
            ],
            "name" : "Material.002",
            "pbrMetallicRoughness" : {
                "baseColorFactor" : [
                    1,
                    0.9866842031478882,
                    0.5119972229003906,
                    1
                ],
                "metallicFactor" : 0,
                "roughnessFactor" : 0.6000000238418579
            }
        },
        {
            "doubleSided" : true,
            "emissiveFactor" : [
                0,
                0,
                0
            ],
            "name" : "Material.003",
            "pbrMetallicRoughness" : {
                "baseColorFactor" : [
                    0.39015817642211914,
                    0.11732006072998047,
                    0.0025024889037013054,
                    1
                ],
                "metallicFactor" : 0,
                "roughnessFactor" : 0.6000000238418579
            }
        }
    ],
    "meshes" : [
        {
            "name" : "Cylinder.003_0",
            "primitives" : [
                {
                    "attributes" : {
                        "POSITION" : 0,
                        "NORMAL" : 1
                    },
                    "indices" : 2,
                    "material" : 0
                }
            ]
        },
        {
            "name" : "Cylinder.004_0",
            "primitives" : [
                {
                    "attributes" : {
                        "POSITION" : 3,
                        "NORMAL" : 4
                    },
                    "indices" : 5,
                    "material" : 1
                }
            ]
        },
        {
            "name" : "Cylinder.004_1",
            "primitives" : [
                {
                    "attributes" : {
                        "POSITION" : 6,
                        "NORMAL" : 7
                    },
                    "indices" : 8,
                    "material" : 2
                }
            ]
        },
        {
            "name" : "Cylinder.004_2",
            "primitives" : [
                {
                    "attributes" : {
                        "POSITION" : 9,
                        "NORMAL" : 10
                    },
                    "indices" : 11,
                    "material" : 3
                }
            ]
        },
        {
            "name" : "Cylinder.000_0",
            "primitives" : [
                {
                    "attributes" : {
                        "POSITION" : 12,
                        "NORMAL" : 13
                    },
                    "indices" : 14,
                    "material" : 2
                }
            ]
        },
        {
            "name" : "Cylinder.001_0",
            "primitives" : [
                {
                    "attributes" : {
                        "POSITION" : 15,
                        "NORMAL" : 16
                    },
                    "indices" : 2,
                    "material" : 3
                }
            ]
        },
        {
            "name" : "Cylinder.002_0",
            "primitives" : [
                {
                    "attributes" : {
                        "POSITION" : 17,
                        "NORMAL" : 18
                    },
                    "indices" : 5,
                    "material" : 1
                }
            ]
        }
    ],
    "accessors" : [
        {
            "bufferView" : 0,
            "componentType" : 5126,
            "count" : 141,
            "max" : [
                1,
                0.9807900190353394,
                5.197659969329834
            ],
            "min" : [
                -0.9807900190353394,
                -0.9807900190353394,
                -1
            ],
            "type" : "VEC3"
        },
        {
            "bufferView" : 1,
            "componentType" : 5126,
            "count" : 141,
            "type" : "VEC3"
        },
        {
            "bufferView" : 2,
            "componentType" : 5123,
            "count" : 150,
            "type" : "SCALAR"
        },
        {
            "bufferView" : 3,
            "componentType" : 5126,
            "count" : 97,
            "max" : [
                0.78125,
                0.7655100226402283,
                2.3536698818206787
            ],
            "min" : [
                -0.7210999727249146,
                -0.78125,
                -0.860759973526001
            ],
            "type" : "VEC3"
        },
        {
            "bufferView" : 4,
            "componentType" : 5126,
            "count" : 97,
            "type" : "VEC3"
        },
        {
            "bufferView" : 5,
            "componentType" : 5123,
            "count" : 99,
            "type" : "SCALAR"
        },
        {
            "bufferView" : 6,
            "componentType" : 5126,
            "count" : 193,
            "max" : [
                4.717160224914551,
                4.782529830932617,
                -0.832889974117279
            ],
            "min" : [
                -4.919079780578613,
                -4.65231990814209,
                -6.101709842681885
            ],
            "type" : "VEC3"
        },
        {
            "bufferView" : 7,
            "componentType" : 5126,
            "count" : 193,
            "type" : "VEC3"
        },
        {
            "bufferView" : 8,
            "componentType" : 5123,
            "count" : 1146,
            "type" : "SCALAR"
        },
        {
            "bufferView" : 9,
            "componentType" : 5126,
            "count" : 143,
            "max" : [
                0.29688000679016113,
                0.1498900055885315,
                -0.8359599709510803
            ],
            "min" : [
                -0.2539199888706207,
                -0.3955700099468231,
                -2.55935001373291
            ],
            "type" : "VEC3"
        },
        {
            "bufferView" : 10,
            "componentType" : 5126,
            "count" : 143,
            "type" : "VEC3"
        },
        {
            "bufferView" : 11,
            "componentType" : 5123,
            "count" : 150,
            "type" : "SCALAR"
        },
        {
            "bufferView" : 12,
            "componentType" : 5126,
            "count" : 193,
            "max" : [
                1.6836199760437012,
                1.7267600297927856,
                1.048550009727478
            ],
            "min" : [
                -1.7588800191879272,
                -1.6438000202178955,
                -1
            ],
            "type" : "VEC3"
        },
        {
            "bufferView" : 13,
            "componentType" : 5126,
            "count" : 193,
            "type" : "VEC3"
        },
        {
            "bufferView" : 14,
            "componentType" : 5123,
            "count" : 1146,
            "type" : "SCALAR"
        },
        {
            "bufferView" : 15,
            "componentType" : 5126,
            "count" : 141,
            "max" : [
                1,
                0.9807900190353394,
                5.197659969329834
            ],
            "min" : [
                -0.9807900190353394,
                -0.9807900190353394,
                -1
            ],
            "type" : "VEC3"
        },
        {
            "bufferView" : 16,
            "componentType" : 5126,
            "count" : 141,
            "type" : "VEC3"
        },
        {
            "bufferView" : 17,
            "componentType" : 5126,
            "count" : 97,
            "max" : [
                0.78125,
                0.7655100226402283,
                2.3536698818206787
            ],
            "min" : [
                -0.7210999727249146,
                -0.78125,
                -0.860759973526001
            ],
            "type" : "VEC3"
        },
        {
            "bufferView" : 18,
            "componentType" : 5126,
            "count" : 97,
            "type" : "VEC3"
        }
    ],
    "bufferViews" : [
        {
            "buffer" : 0,
            "byteLength" : 1692,
            "byteOffset" : 0
        },
        {
            "buffer" : 0,
            "byteLength" : 1692,
            "byteOffset" : 1692
        },
        {
            "buffer" : 0,
            "byteLength" : 300,
            "byteOffset" : 3384
        },
        {
            "buffer" : 0,
            "byteLength" : 1164,
            "byteOffset" : 3684
        },
        {
            "buffer" : 0,
            "byteLength" : 1164,
            "byteOffset" : 4848
        },
        {
            "buffer" : 0,
            "byteLength" : 198,
            "byteOffset" : 6012
        },
        {
            "buffer" : 0,
            "byteLength" : 2316,
            "byteOffset" : 6212
        },
        {
            "buffer" : 0,
            "byteLength" : 2316,
            "byteOffset" : 8528
        },
        {
            "buffer" : 0,
            "byteLength" : 2292,
            "byteOffset" : 10844
        },
        {
            "buffer" : 0,
            "byteLength" : 1716,
            "byteOffset" : 13136
        },
        {
            "buffer" : 0,
            "byteLength" : 1716,
            "byteOffset" : 14852
        },
        {
            "buffer" : 0,
            "byteLength" : 300,
            "byteOffset" : 16568
        },
        {
            "buffer" : 0,
            "byteLength" : 2316,
            "byteOffset" : 16868
        },
        {
            "buffer" : 0,
            "byteLength" : 2316,
            "byteOffset" : 19184
        },
        {
            "buffer" : 0,
            "byteLength" : 2292,
            "byteOffset" : 21500
        },
        {
            "buffer" : 0,
            "byteLength" : 1692,
            "byteOffset" : 23792
        },
        {
            "buffer" : 0,
            "byteLength" : 1692,
            "byteOffset" : 25484
        },
        {
            "buffer" : 0,
            "byteLength" : 1164,
            "byteOffset" : 27176
        },
        {
            "buffer" : 0,
            "byteLength" : 1164,
            "byteOffset" : 28340
        }
    ],
    "buffers" : [
        {
            "byteLength" : 29504,
            "uri" : "data:application/octet-stream;base64,"
        }
    ]
}
