{
    "asset" : {
        "generator" : "Khronos glTF Blender I/O v1.3.48",
        "version" : "2.0"
    },
    "scene" : 0,
    "scenes" : [
        {
            "name" : "Scene",
            "nodes" : [
                3
            ]
        }
    ],
    "nodes" : [
        {
            "mesh" : 0,
            "name" : "Cylinder.005_0"
        },
        {
            "mesh" : 1,
            "name" : "Cylinder.005_1"
        },
        {
            "mesh" : 2,
            "name" : "Cylinder.005_2"
        },
        {
            "children" : [
                0,
                1,
                2
            ],
            "name" : "Cylinder.005",
            "rotation" : [
                -0.7137381434440613,
                0.12971588969230652,
                0.12307596206665039,
                0.6772031188011169
            ],
            "scale" : [
                0.11436328291893005,
                0.11436328291893005,
                0.11437000334262848
            ],
            "translation" : [
                0.8176717758178711,
                0.8994826674461365,
                -0.1474001407623291
            ]
        }
    ],
    "materials" : [
        {
            "doubleSided" : true,
            "emissiveFactor" : [
                1,
                1,
                1
            ],
            "name" : "Material.004",
            "pbrMetallicRoughness" : {
                "baseColorFactor" : [
                    0.6925509572029114,
                    0.6731639504432678,
                    0.029327701777219772,
                    1
                ],
                "metallicFactor" : 0,
                "roughnessFactor" : 0.6000000238418579
            }
        },
        {
            "doubleSided" : true,
            "emissiveFactor" : [
                0,
                0,
                0
            ],
            "name" : "Material.002",
            "pbrMetallicRoughness" : {
                "baseColorFactor" : [
                    1,
                    0.9866842031478882,
                    0.5119972229003906,
                    1
                ],
                "metallicFactor" : 0,
                "roughnessFactor" : 0.6000000238418579
            }
        },
        {
            "doubleSided" : true,
            "emissiveFactor" : [
                0,
                0,
                0
            ],
            "name" : "Material.003",
            "pbrMetallicRoughness" : {
                "baseColorFactor" : [
                    0.39015817642211914,
                    0.11732006072998047,
                    0.0025024889037013054,
                    1
                ],
                "metallicFactor" : 0,
                "roughnessFactor" : 0.6000000238418579
            }
        }
    ],
    "meshes" : [
        {
            "name" : "Cylinder.005_0",
            "primitives" : [
                {
                    "attributes" : {
                        "POSITION" : 0,
                        "NORMAL" : 1
                    },
                    "indices" : 2,
                    "material" : 0
                }
            ]
        },
        {
            "name" : "Cylinder.005_1",
            "primitives" : [
                {
                    "attributes" : {
                        "POSITION" : 3,
                        "NORMAL" : 4
                    },
                    "indices" : 5,
                    "material" : 1
                }
            ]
        },
        {
            "name" : "Cylinder.005_2",
            "primitives" : [
                {
                    "attributes" : {
                        "POSITION" : 6,
                        "NORMAL" : 7
                    },
                    "indices" : 8,
                    "material" : 2
                }
            ]
        }
    ],
    "accessors" : [
        {
            "bufferView" : 0,
            "componentType" : 5126,
            "count" : 194,
            "max" : [
                0.78125,
                3.419600009918213,
                13.212240219116211
            ],
            "min" : [
                -7.370259761810303,
                -0.78125,
                -0.860759973526001
            ],
            "type" : "VEC3"
        },
        {
            "bufferView" : 1,
            "componentType" : 5126,
            "count" : 194,
            "type" : "VEC3"
        },
        {
            "bufferView" : 2,
            "componentType" : 5123,
            "count" : 198,
            "type" : "SCALAR"
        },
        {
            "bufferView" : 3,
            "componentType" : 5126,
            "count" : 386,
            "max" : [
                4.717160224914551,
                9.235420227050781,
                9.039870262145996
            ],
            "min" : [
                -13.891860008239746,
                -4.65231990814209,
                -6.101709842681885
            ],
            "type" : "VEC3"
        },
        {
            "bufferView" : 4,
            "componentType" : 5126,
            "count" : 386,
            "type" : "VEC3"
        },
        {
            "bufferView" : 5,
            "componentType" : 5123,
            "count" : 2292,
            "type" : "SCALAR"
        },
        {
            "bufferView" : 6,
            "componentType" : 5126,
            "count" : 288,
            "max" : [
                0.29688000679016113,
                2.4684200286865234,
                8.79286003112793
            ],
            "min" : [
                -6.76501989364624,
                -0.3955700099468231,
                -2.55935001373291
            ],
            "type" : "VEC3"
        },
        {
            "bufferView" : 7,
            "componentType" : 5126,
            "count" : 288,
            "type" : "VEC3"
        },
        {
            "bufferView" : 8,
            "componentType" : 5123,
            "count" : 300,
            "type" : "SCALAR"
        }
    ],
    "bufferViews" : [
        {
            "buffer" : 0,
            "byteLength" : 2328,
            "byteOffset" : 0
        },
        {
            "buffer" : 0,
            "byteLength" : 2328,
            "byteOffset" : 2328
        },
        {
            "buffer" : 0,
            "byteLength" : 396,
            "byteOffset" : 4656
        },
        {
            "buffer" : 0,
            "byteLength" : 4632,
            "byteOffset" : 5052
        },
        {
            "buffer" : 0,
            "byteLength" : 4632,
            "byteOffset" : 9684
        },
        {
            "buffer" : 0,
            "byteLength" : 4584,
            "byteOffset" : 14316
        },
        {
            "buffer" : 0,
            "byteLength" : 3456,
            "byteOffset" : 18900
        },
        {
            "buffer" : 0,
            "byteLength" : 3456,
            "byteOffset" : 22356
        },
        {
            "buffer" : 0,
            "byteLength" : 600,
            "byteOffset" : 25812
        }
    ],
    "buffers" : [
        {
            "byteLength" : 26412,
            "uri" : "data:application/octet-stream;base64,"
        }
    ]
}
