{
    "asset" : {
        "generator" : "Khronos glTF Blender I/O v1.3.48",
        "version" : "2.0"
    },
    "scene" : 0,
    "scenes" : [
        {
            "name" : "Scene",
            "nodes" : [
                3,
                7,
                11
            ]
        }
    ],
    "nodes" : [
        {
            "mesh" : 0,
            "name" : "Cylinder.006_0"
        },
        {
            "mesh" : 1,
            "name" : "Cylinder.006_1"
        },
        {
            "mesh" : 2,
            "name" : "Cylinder.006_2"
        },
        {
            "children" : [
                0,
                1,
                2
            ],
            "name" : "Cylinder.006",
            "rotation" : [
                -0.7169647812843323,
                0,
                0,
                0.6971094608306885
            ],
            "scale" : [
                0.44356000423431396,
                0.44356000423431396,
                0.44356000423431396
            ],
            "translation" : [
                -0.4047966003417969,
                0.8059675693511963,
                -0.3045710325241089
            ]
        },
        {
            "mesh" : 3,
            "name" : "Cylinder.011_0"
        },
        {
            "mesh" : 4,
            "name" : "Cylinder.011_1"
        },
        {
            "mesh" : 5,
            "name" : "Cylinder.011_2"
        },
        {
            "children" : [
                4,
                5,
                6
            ],
            "name" : "Cylinder.011",
            "rotation" : [
                -0.7169647812843323,
                0,
                0,
                0.6971094608306885
            ],
            "scale" : [
                0.44356000423431396,
                0.44356000423431396,
                0.44356000423431396
            ],
            "translation" : [
                0.49161338806152344,
                0.8059675693511963,
                -0.3045710325241089
            ]
        },
        {
            "mesh" : 6,
            "name" : "Cylinder.012_0"
        },
        {
            "mesh" : 7,
            "name" : "Cylinder.012_1"
        },
        {
            "mesh" : 8,
            "name" : "Cylinder.012_2"
        },
        {
            "children" : [
                8,
                9,
                10
            ],
            "name" : "Cylinder.012",
            "rotation" : [
                -0.7169647812843323,
                0,
                0,
                0.6971094608306885
            ],
            "scale" : [
                0.44356000423431396,
                0.44356000423431396,
                0.44356000423431396
            ],
            "translation" : [
                0.04693317413330078,
                0.8277323246002197,
                0.4703035354614258
            ]
        }
    ],
    "materials" : [
        {
            "doubleSided" : true,
            "emissiveFactor" : [
                0,
                0,
                0
            ],
            "name" : "Material.002",
            "pbrMetallicRoughness" : {
                "baseColorFactor" : [
                    1,
                    0.9866842031478882,
                    0.5119972229003906,
                    1
                ],
                "metallicFactor" : 0,
                "roughnessFactor" : 0.6000000238418579
            }
        },
        {
            "doubleSided" : true,
            "emissiveFactor" : [
                0,
                0,
                0
            ],
            "name" : "Material.003",
            "pbrMetallicRoughness" : {
                "baseColorFactor" : [
                    0.39015817642211914,
                    0.11732006072998047,
                    0.0025024889037013054,
                    1
                ],
                "metallicFactor" : 0,
                "roughnessFactor" : 0.6000000238418579
            }
        },
        {
            "doubleSided" : true,
            "emissiveFactor" : [
                1,
                1,
                1
            ],
            "name" : "Material.004",
            "pbrMetallicRoughness" : {
                "baseColorFactor" : [
                    0.6925509572029114,
                    0.6731639504432678,
                    0.029327701777219772,
                    1
                ],
                "metallicFactor" : 0,
                "roughnessFactor" : 0.6000000238418579
            }
        }
    ],
    "meshes" : [
        {
            "name" : "Cylinder.006_0",
            "primitives" : [
                {
                    "attributes" : {
                        "POSITION" : 0,
                        "NORMAL" : 1
                    },
                    "indices" : 2,
                    "material" : 0
                }
            ]
        },
        {
            "name" : "Cylinder.006_1",
            "primitives" : [
                {
                    "attributes" : {
                        "POSITION" : 3,
                        "NORMAL" : 4
                    },
                    "indices" : 5,
                    "material" : 1
                }
            ]
        },
        {
            "name" : "Cylinder.006_2",
            "primitives" : [
                {
                    "attributes" : {
                        "POSITION" : 6,
                        "NORMAL" : 7
                    },
                    "indices" : 8,
                    "material" : 2
                }
            ]
        },
        {
            "name" : "Cylinder.011_0",
            "primitives" : [
                {
                    "attributes" : {
                        "POSITION" : 9,
                        "NORMAL" : 10
                    },
                    "indices" : 2,
                    "material" : 0
                }
            ]
        },
        {
            "name" : "Cylinder.011_1",
            "primitives" : [
                {
                    "attributes" : {
                        "POSITION" : 11,
                        "NORMAL" : 12
                    },
                    "indices" : 5,
                    "material" : 1
                }
            ]
        },
        {
            "name" : "Cylinder.011_2",
            "primitives" : [
                {
                    "attributes" : {
                        "POSITION" : 13,
                        "NORMAL" : 14
                    },
                    "indices" : 8,
                    "material" : 2
                }
            ]
        },
        {
            "name" : "Cylinder.012_0",
            "primitives" : [
                {
                    "attributes" : {
                        "POSITION" : 15,
                        "NORMAL" : 16
                    },
                    "indices" : 2,
                    "material" : 0
                }
            ]
        },
        {
            "name" : "Cylinder.012_1",
            "primitives" : [
                {
                    "attributes" : {
                        "POSITION" : 17,
                        "NORMAL" : 18
                    },
                    "indices" : 19,
                    "material" : 1
                }
            ]
        },
        {
            "name" : "Cylinder.012_2",
            "primitives" : [
                {
                    "attributes" : {
                        "POSITION" : 20,
                        "NORMAL" : 21
                    },
                    "indices" : 8,
                    "material" : 2
                }
            ]
        }
    ],
    "accessors" : [
        {
            "bufferView" : 0,
            "componentType" : 5126,
            "count" : 193,
            "max" : [
                1.6836199760437012,
                1.7267600297927856,
                2.9003000259399414
            ],
            "min" : [
                -1.7588800191879272,
                -1.6438000202178955,
                -1
            ],
            "type" : "VEC3"
        },
        {
            "bufferView" : 1,
            "componentType" : 5126,
            "count" : 193,
            "type" : "VEC3"
        },
        {
            "bufferView" : 2,
            "componentType" : 5123,
            "count" : 1146,
            "type" : "SCALAR"
        },
        {
            "bufferView" : 3,
            "componentType" : 5126,
            "count" : 144,
            "max" : [
                0.10450000315904617,
                0.07176999747753143,
                2.8366100788116455
            ],
            "min" : [
                -0.09227000176906586,
                -0.123089998960495,
                2.2209300994873047
            ],
            "type" : "VEC3"
        },
        {
            "bufferView" : 4,
            "componentType" : 5126,
            "count" : 144,
            "type" : "VEC3"
        },
        {
            "bufferView" : 5,
            "componentType" : 5123,
            "count" : 150,
            "type" : "SCALAR"
        },
        {
            "bufferView" : 6,
            "componentType" : 5126,
            "count" : 97,
            "max" : [
                0.277539998292923,
                0.29170000553131104,
                3.9760899543762207
            ],
            "min" : [
                -0.25916001200675964,
                -0.2608700096607208,
                2.8277499675750732
            ],
            "type" : "VEC3"
        },
        {
            "bufferView" : 7,
            "componentType" : 5126,
            "count" : 97,
            "type" : "VEC3"
        },
        {
            "bufferView" : 8,
            "componentType" : 5123,
            "count" : 99,
            "type" : "SCALAR"
        },
        {
            "bufferView" : 9,
            "componentType" : 5126,
            "count" : 193,
            "max" : [
                1.6836199760437012,
                1.7267600297927856,
                2.4316000938415527
            ],
            "min" : [
                -1.7588800191879272,
                -1.6438000202178955,
                -1
            ],
            "type" : "VEC3"
        },
        {
            "bufferView" : 10,
            "componentType" : 5126,
            "count" : 193,
            "type" : "VEC3"
        },
        {
            "bufferView" : 11,
            "componentType" : 5126,
            "count" : 144,
            "max" : [
                0.10450000315904617,
                0.07176999747753143,
                2.3679099082946777
            ],
            "min" : [
                -0.09227000176906586,
                -0.123089998960495,
                1.7522399425506592
            ],
            "type" : "VEC3"
        },
        {
            "bufferView" : 12,
            "componentType" : 5126,
            "count" : 144,
            "type" : "VEC3"
        },
        {
            "bufferView" : 13,
            "componentType" : 5126,
            "count" : 97,
            "max" : [
                0.277539998292923,
                0.29170000553131104,
                3.507390022277832
            ],
            "min" : [
                -0.25916001200675964,
                -0.2608700096607208,
                2.3590500354766846
            ],
            "type" : "VEC3"
        },
        {
            "bufferView" : 14,
            "componentType" : 5126,
            "count" : 97,
            "type" : "VEC3"
        },
        {
            "bufferView" : 15,
            "componentType" : 5126,
            "count" : 193,
            "max" : [
                1.6836199760437012,
                1.7267600297927856,
                1.8977999687194824
            ],
            "min" : [
                -1.7588800191879272,
                -1.6438000202178955,
                -1
            ],
            "type" : "VEC3"
        },
        {
            "bufferView" : 16,
            "componentType" : 5126,
            "count" : 193,
            "type" : "VEC3"
        },
        {
            "bufferView" : 17,
            "componentType" : 5126,
            "count" : 143,
            "max" : [
                0.10450000315904617,
                0.07176999747753143,
                1.8341000080108643
            ],
            "min" : [
                -0.09227000176906586,
                -0.123089998960495,
                1.2184300422668457
            ],
            "type" : "VEC3"
        },
        {
            "bufferView" : 18,
            "componentType" : 5126,
            "count" : 143,
            "type" : "VEC3"
        },
        {
            "bufferView" : 19,
            "componentType" : 5123,
            "count" : 150,
            "type" : "SCALAR"
        },
        {
            "bufferView" : 20,
            "componentType" : 5126,
            "count" : 97,
            "max" : [
                0.277539998292923,
                0.29170000553131104,
                2.9735898971557617
            ],
            "min" : [
                -0.25916001200675964,
                -0.2608700096607208,
                1.8252400159835815
            ],
            "type" : "VEC3"
        },
        {
            "bufferView" : 21,
            "componentType" : 5126,
            "count" : 97,
            "type" : "VEC3"
        }
    ],
    "bufferViews" : [
        {
            "buffer" : 0,
            "byteLength" : 2316,
            "byteOffset" : 0
        },
        {
            "buffer" : 0,
            "byteLength" : 2316,
            "byteOffset" : 2316
        },
        {
            "buffer" : 0,
            "byteLength" : 2292,
            "byteOffset" : 4632
        },
        {
            "buffer" : 0,
            "byteLength" : 1728,
            "byteOffset" : 6924
        },
        {
            "buffer" : 0,
            "byteLength" : 1728,
            "byteOffset" : 8652
        },
        {
            "buffer" : 0,
            "byteLength" : 300,
            "byteOffset" : 10380
        },
        {
            "buffer" : 0,
            "byteLength" : 1164,
            "byteOffset" : 10680
        },
        {
            "buffer" : 0,
            "byteLength" : 1164,
            "byteOffset" : 11844
        },
        {
            "buffer" : 0,
            "byteLength" : 198,
            "byteOffset" : 13008
        },
        {
            "buffer" : 0,
            "byteLength" : 2316,
            "byteOffset" : 13208
        },
        {
            "buffer" : 0,
            "byteLength" : 2316,
            "byteOffset" : 15524
        },
        {
            "buffer" : 0,
            "byteLength" : 1728,
            "byteOffset" : 17840
        },
        {
            "buffer" : 0,
            "byteLength" : 1728,
            "byteOffset" : 19568
        },
        {
            "buffer" : 0,
            "byteLength" : 1164,
            "byteOffset" : 21296
        },
        {
            "buffer" : 0,
            "byteLength" : 1164,
            "byteOffset" : 22460
        },
        {
            "buffer" : 0,
            "byteLength" : 2316,
            "byteOffset" : 23624
        },
        {
            "buffer" : 0,
            "byteLength" : 2316,
            "byteOffset" : 25940
        },
        {
            "buffer" : 0,
            "byteLength" : 1716,
            "byteOffset" : 28256
        },
        {
            "buffer" : 0,
            "byteLength" : 1716,
            "byteOffset" : 29972
        },
        {
            "buffer" : 0,
            "byteLength" : 300,
            "byteOffset" : 31688
        },
        {
            "buffer" : 0,
            "byteLength" : 1164,
            "byteOffset" : 31988
        },
        {
            "buffer" : 0,
            "byteLength" : 1164,
            "byteOffset" : 33152
        }
    ],
    "buffers" : [
        {
            "byteLength" : 34316,
            "uri" : "data:application/octet-stream;base64,"
        }
    ]
}
