{
    "asset" : {
        "generator" : "Khronos glTF Blender I/O v1.3.48",
        "version" : "2.0"
    },
    "scene" : 0,
    "scenes" : [
        {
            "name" : "Scene",
            "nodes" : [
                3
            ]
        }
    ],
    "nodes" : [
        {
            "mesh" : 0,
            "name" : "Cylinder.013_0"
        },
        {
            "mesh" : 1,
            "name" : "Cylinder.013_1"
        },
        {
            "mesh" : 2,
            "name" : "Cylinder.013_2"
        },
        {
            "children" : [
                0,
                1,
                2
            ],
            "name" : "Cylinder.013",
            "rotation" : [
                -0.6839271783828735,
                0.23287755250930786,
                0.22285202145576477,
                0.6544836163520813
            ],
            "scale" : [
                0.03324875608086586,
                0.03324875608086586,
                0.033250000327825546
            ],
            "translation" : [
                0.09319591522216797,
                0.6999553442001343,
                0.5461524724960327
            ]
        }
    ],
    "materials" : [
        {
            "doubleSided" : true,
            "emissiveFactor" : [
                0,
                0,
                0
            ],
            "name" : "Material.003",
            "pbrMetallicRoughness" : {
                "baseColorFactor" : [
                    0.39015817642211914,
                    0.11732006072998047,
                    0.0025024889037013054,
                    1
                ],
                "metallicFactor" : 0,
                "roughnessFactor" : 0.6000000238418579
            }
        },
        {
            "doubleSided" : true,
            "emissiveFactor" : [
                1,
                1,
                1
            ],
            "name" : "Material.004",
            "pbrMetallicRoughness" : {
                "baseColorFactor" : [
                    0.6925509572029114,
                    0.6731639504432678,
                    0.029327701777219772,
                    1
                ],
                "metallicFactor" : 0,
                "roughnessFactor" : 0.6000000238418579
            }
        },
        {
            "doubleSided" : true,
            "emissiveFactor" : [
                0,
                0,
                0
            ],
            "name" : "Material.002",
            "pbrMetallicRoughness" : {
                "baseColorFactor" : [
                    1,
                    0.9866842031478882,
                    0.5119972229003906,
                    1
                ],
                "metallicFactor" : 0,
                "roughnessFactor" : 0.6000000238418579
            }
        }
    ],
    "meshes" : [
        {
            "name" : "Cylinder.013_0",
            "primitives" : [
                {
                    "attributes" : {
                        "POSITION" : 0,
                        "NORMAL" : 1
                    },
                    "indices" : 2,
                    "material" : 0
                }
            ]
        },
        {
            "name" : "Cylinder.013_1",
            "primitives" : [
                {
                    "attributes" : {
                        "POSITION" : 3,
                        "NORMAL" : 4
                    },
                    "indices" : 5,
                    "material" : 1
                }
            ]
        },
        {
            "name" : "Cylinder.013_2",
            "primitives" : [
                {
                    "attributes" : {
                        "POSITION" : 6,
                        "NORMAL" : 7
                    },
                    "indices" : 8,
                    "material" : 2
                }
            ]
        }
    ],
    "accessors" : [
        {
            "bufferView" : 0,
            "componentType" : 5126,
            "count" : 427,
            "max" : [
                26.356510162353516,
                21.2393798828125,
                35.26398849487305
            ],
            "min" : [
                -5.761390209197998,
                -0.9807900190353394,
                -1
            ],
            "type" : "VEC3"
        },
        {
            "bufferView" : 1,
            "componentType" : 5126,
            "count" : 427,
            "type" : "VEC3"
        },
        {
            "bufferView" : 2,
            "componentType" : 5123,
            "count" : 450,
            "type" : "SCALAR"
        },
        {
            "bufferView" : 3,
            "componentType" : 5126,
            "count" : 291,
            "max" : [
                29.37980079650879,
                23.660249710083008,
                50.78575897216797
            ],
            "min" : [
                -8.032979965209961,
                -2.9664299488067627,
                5.404590129852295
            ],
            "type" : "VEC3"
        },
        {
            "bufferView" : 4,
            "componentType" : 5126,
            "count" : 291,
            "type" : "VEC3"
        },
        {
            "bufferView" : 5,
            "componentType" : 5123,
            "count" : 297,
            "type" : "SCALAR"
        },
        {
            "bufferView" : 6,
            "componentType" : 5126,
            "count" : 579,
            "max" : [
                57.11423873901367,
                45.15896987915039,
                34.94186019897461
            ],
            "min" : [
                -25.994949340820312,
                -23.487260818481445,
                -17.086610794067383
            ],
            "type" : "VEC3"
        },
        {
            "bufferView" : 7,
            "componentType" : 5126,
            "count" : 579,
            "type" : "VEC3"
        },
        {
            "bufferView" : 8,
            "componentType" : 5123,
            "count" : 3438,
            "type" : "SCALAR"
        }
    ],
    "bufferViews" : [
        {
            "buffer" : 0,
            "byteLength" : 5124,
            "byteOffset" : 0
        },
        {
            "buffer" : 0,
            "byteLength" : 5124,
            "byteOffset" : 5124
        },
        {
            "buffer" : 0,
            "byteLength" : 900,
            "byteOffset" : 10248
        },
        {
            "buffer" : 0,
            "byteLength" : 3492,
            "byteOffset" : 11148
        },
        {
            "buffer" : 0,
            "byteLength" : 3492,
            "byteOffset" : 14640
        },
        {
            "buffer" : 0,
            "byteLength" : 594,
            "byteOffset" : 18132
        },
        {
            "buffer" : 0,
            "byteLength" : 6948,
            "byteOffset" : 18728
        },
        {
            "buffer" : 0,
            "byteLength" : 6948,
            "byteOffset" : 25676
        },
        {
            "buffer" : 0,
            "byteLength" : 6876,
            "byteOffset" : 32624
        }
    ],
    "buffers" : [
        {
            "byteLength" : 39500,
            "uri" : "data:application/octet-stream;base64,"
        }
    ]
}
