{
    "asset" : {
        "generator" : "Khronos glTF Blender I/O v1.3.48",
        "version" : "2.0"
    },
    "scene" : 0,
    "scenes" : [
        {
            "name" : "Scene",
            "nodes" : [
                1,
                3,
                5
            ]
        }
    ],
    "nodes" : [
        {
            "mesh" : 0,
            "name" : "Cylinder.000_0"
        },
        {
            "children" : [
                0
            ],
            "name" : "Cylinder.000",
            "rotation" : [
                -0.7037103772163391,
                0,
                0,
                0.7104869484901428
            ],
            "scale" : [
                0.44356000423431396,
                0.44356000423431396,
                0.44356000423431396
            ],
            "translation" : [
                -0.6479175090789795,
                0.6077247262001038,
                -0.13974833488464355
            ]
        },
        {
            "mesh" : 1,
            "name" : "Cylinder.001_0"
        },
        {
            "children" : [
                2
            ],
            "name" : "Cylinder.001",
            "rotation" : [
                -0.7037103772163391,
                0,
                0,
                0.7104869484901428
            ],
            "scale" : [
                0.04405999928712845,
                0.04405999928712845,
                0.04405999928712845
            ],
            "translation" : [
                -0.645627498626709,
                0.8504544496536255,
                -0.12604141235351562
            ]
        },
        {
            "mesh" : 2,
            "name" : "Cylinder.002_0"
        },
        {
            "children" : [
                4
            ],
            "name" : "Cylinder.002",
            "rotation" : [
                -0.7037103772163391,
                0,
                0,
                0.7104869484901428
            ],
            "scale" : [
                0.15846000611782074,
                0.15846000611782074,
                0.15846000611782074
            ],
            "translation" : [
                -0.6486074924468994,
                1.2121144533157349,
                -0.14204621315002441
            ]
        }
    ],
    "materials" : [
        {
            "doubleSided" : true,
            "emissiveFactor" : [
                0,
                0,
                0
            ],
            "name" : "Material.002",
            "pbrMetallicRoughness" : {
                "baseColorFactor" : [
                    1,
                    0.9866842031478882,
                    0.5119972229003906,
                    1
                ],
                "metallicFactor" : 0,
                "roughnessFactor" : 0.6000000238418579
            }
        },
        {
            "doubleSided" : true,
            "emissiveFactor" : [
                0,
                0,
                0
            ],
            "name" : "Material.003",
            "pbrMetallicRoughness" : {
                "baseColorFactor" : [
                    0.39015817642211914,
                    0.11732006072998047,
                    0.0025024889037013054,
                    1
                ],
                "metallicFactor" : 0,
                "roughnessFactor" : 0.6000000238418579
            }
        },
        {
            "doubleSided" : true,
            "emissiveFactor" : [
                1,
                1,
                1
            ],
            "name" : "Material.004",
            "pbrMetallicRoughness" : {
                "baseColorFactor" : [
                    0.6925509572029114,
                    0.6731639504432678,
                    0.029327701777219772,
                    1
                ],
                "metallicFactor" : 0,
                "roughnessFactor" : 0.6000000238418579
            }
        }
    ],
    "meshes" : [
        {
            "name" : "Cylinder.000_0",
            "primitives" : [
                {
                    "attributes" : {
                        "POSITION" : 0,
                        "NORMAL" : 1
                    },
                    "indices" : 2,
                    "material" : 0
                }
            ]
        },
        {
            "name" : "Cylinder.001_0",
            "primitives" : [
                {
                    "attributes" : {
                        "POSITION" : 3,
                        "NORMAL" : 4
                    },
                    "indices" : 5,
                    "material" : 1
                }
            ]
        },
        {
            "name" : "Cylinder.002_0",
            "primitives" : [
                {
                    "attributes" : {
                        "POSITION" : 6,
                        "NORMAL" : 7
                    },
                    "indices" : 8,
                    "material" : 2
                }
            ]
        }
    ],
    "accessors" : [
        {
            "bufferView" : 0,
            "componentType" : 5126,
            "count" : 193,
            "max" : [
                1.6836199760437012,
                1.7267600297927856,
                1.048550009727478
            ],
            "min" : [
                -1.7588800191879272,
                -1.6438000202178955,
                -1
            ],
            "type" : "VEC3"
        },
        {
            "bufferView" : 1,
            "componentType" : 5126,
            "count" : 193,
            "type" : "VEC3"
        },
        {
            "bufferView" : 2,
            "componentType" : 5123,
            "count" : 1146,
            "type" : "SCALAR"
        },
        {
            "bufferView" : 3,
            "componentType" : 5126,
            "count" : 141,
            "max" : [
                1,
                0.9807900190353394,
                5.197659969329834
            ],
            "min" : [
                -0.9807900190353394,
                -0.9807900190353394,
                -1
            ],
            "type" : "VEC3"
        },
        {
            "bufferView" : 4,
            "componentType" : 5126,
            "count" : 141,
            "type" : "VEC3"
        },
        {
            "bufferView" : 5,
            "componentType" : 5123,
            "count" : 150,
            "type" : "SCALAR"
        },
        {
            "bufferView" : 6,
            "componentType" : 5126,
            "count" : 97,
            "max" : [
                0.78125,
                0.7655100226402283,
                2.3536698818206787
            ],
            "min" : [
                -0.7210999727249146,
                -0.78125,
                -0.860759973526001
            ],
            "type" : "VEC3"
        },
        {
            "bufferView" : 7,
            "componentType" : 5126,
            "count" : 97,
            "type" : "VEC3"
        },
        {
            "bufferView" : 8,
            "componentType" : 5123,
            "count" : 99,
            "type" : "SCALAR"
        }
    ],
    "bufferViews" : [
        {
            "buffer" : 0,
            "byteLength" : 2316,
            "byteOffset" : 0
        },
        {
            "buffer" : 0,
            "byteLength" : 2316,
            "byteOffset" : 2316
        },
        {
            "buffer" : 0,
            "byteLength" : 2292,
            "byteOffset" : 4632
        },
        {
            "buffer" : 0,
            "byteLength" : 1692,
            "byteOffset" : 6924
        },
        {
            "buffer" : 0,
            "byteLength" : 1692,
            "byteOffset" : 8616
        },
        {
            "buffer" : 0,
            "byteLength" : 300,
            "byteOffset" : 10308
        },
        {
            "buffer" : 0,
            "byteLength" : 1164,
            "byteOffset" : 10608
        },
        {
            "buffer" : 0,
            "byteLength" : 1164,
            "byteOffset" : 11772
        },
        {
            "buffer" : 0,
            "byteLength" : 198,
            "byteOffset" : 12936
        }
    ],
    "buffers" : [
        {
            "byteLength" : 13136,
            "uri" : "data:application/octet-stream;base64,"
        }
    ]
}
